<?xml version="1.0" standalone="no"?>
<!DOCTYPE svg PUBLIC "-//W3C//DTD SVG 1.1//EN" "http://www.w3.org/Graphics/SVG/1.1/DTD/svg11.dtd" >
<svg>
<metadata>
Created by FontForge 20120731 at Wed Jan 27 19:14:30 2016
 By ,,,
Copyright (c) The Font Bureau, Inc., 2008. All rights reserved.
</metadata>
<defs>
<font id="BentonSans-Bold" horiz-adv-x="0" >
  <font-face 
    font-family="BentonSans-Bold"
    font-weight="700"
    font-stretch="normal"
    units-per-em="2048"
    panose-1="2 0 5 3 0 0 0 2 0 4"
    ascent="1638"
    descent="-410"
    x-height="1092"
    cap-height="1516"
    bbox="-184 -602 3095 2031"
    underline-thickness="50"
    underline-position="-50"
    unicode-range="U+0020-FB04"
  />
<missing-glyph horiz-adv-x="1024" 
d="M0 1434h1024v-1434h-1024v1434zM102 102h820v1229h-820v-1229z" />
    <glyph glyph-name="uniFB00" unicode="ff" horiz-adv-x="1501" 
d="M223 0v852h-182v240h182v75q0 69 15 133t53 114t104 80t168 30q27 0 56.5 -2t56 -4t46 -5t26.5 -4v-227q-14 5 -38 5.5t-42 0.5q-62 0 -89.5 -33t-27.5 -98v-65h330v75q0 69 13.5 133t54 114t115 80t196.5 30q24 0 55 -2l61 -4q29 -2 52 -5t30 -4v-229q-7 1 -18.5 2.5
t-25 3t-27 2t-25.5 0.5q-30 0 -58 -4t-49 -17.5t-34 -39.5t-13 -70v-65h238v-240h-238v-852h-327v852h-330v-852h-328z" />
    <glyph glyph-name="uniFB01" unicode="fi" horiz-adv-x="1358" 
d="M223 0v852h-182v240h182v75q0 69 15 133t53 114t104 80t168 30q25 0 54 -2l56 -4q27 -2 47 -5l28 -4v-227q-14 5 -38 5.5t-42 0.5q-62 0 -89.5 -33t-27.5 -98v-65h201v-240h-201v-852h-328zM881 0v1092h327v-1092h-327zM879 1223v282h331v-282h-331z" />
    <glyph glyph-name="uniFB02" unicode="fl" horiz-adv-x="1350" 
d="M223 0v852h-182v240h182v75q0 69 15 133t53 114t104 80t168 30q25 0 54 -2l56 -4q27 -2 47 -5l28 -4v-227q-14 5 -38 5.5t-42 0.5q-62 0 -89.5 -33t-27.5 -98v-65h201v-240h-201v-852h-328zM881 0v1516h327v-1516h-327z" />
    <glyph glyph-name="uniFB03" unicode="ffi" horiz-adv-x="2003" 
d="M223 0v852h-182v240h182v75q0 69 15 133t53 114t104 80t168 30q27 0 56.5 -2t56 -4t46 -5t26.5 -4v-227q-14 5 -38 5.5t-42 0.5q-62 0 -89.5 -33t-27.5 -98v-65h330v75q0 69 14.5 133t53 114t104.5 80t168 30q24 0 53 -2l54 -4q27 -2 48 -5t29 -4v-227q-14 5 -38 5.5
t-44 0.5q-60 0 -87.5 -33t-27.5 -98v-65h199v-240h-199v-852h-327v852h-330v-852h-328zM1536 0v1092h330v-1092h-330zM1536 1223v282h330v-282h-330z" />
    <glyph glyph-name="uniFB04" unicode="ffl" horiz-adv-x="2003" 
d="M223 0v852h-182v240h182v75q0 69 15 133t53 114t104 80t168 30q27 0 56.5 -2t56 -4t46 -5t26.5 -4v-227q-14 5 -38 5.5t-42 0.5q-62 0 -89.5 -33t-27.5 -98v-65h330v75q0 69 14.5 133t53 114t104.5 80t168 30q24 0 53 -2l54 -4q27 -2 48 -5t29 -4v-227q-14 5 -38 5.5
t-44 0.5q-60 0 -87.5 -33t-27.5 -98v-65h199v-240h-199v-852h-327v852h-330v-852h-328zM1536 0v1516h330v-1516h-330z" />
    <glyph glyph-name=".notdef" horiz-adv-x="1024" 
d="M0 1434h1024v-1434h-1024v1434zM102 102h820v1229h-820v-1229z" />
    <glyph glyph-name=".null" 
 />
    <glyph glyph-name="nonmarkingreturn" horiz-adv-x="682" 
 />
    <glyph glyph-name="space" unicode=" " horiz-adv-x="551" 
 />
    <glyph glyph-name="space" unicode="&#xa0;" horiz-adv-x="551" 
 />
    <glyph glyph-name="exclam" unicode="!" horiz-adv-x="731" 
d="M250 479l-84 1037h414l-82 -1037h-248zM197 0v303h352v-303h-352z" />
    <glyph glyph-name="quotedbl" unicode="&#x22;" horiz-adv-x="942" 
d="M164 963l-35 401v152h281v-152l-35 -401h-211zM567 963l-35 401v152h279v-152l-35 -401h-209z" />
    <glyph glyph-name="numbersign" unicode="#" horiz-adv-x="1563" 
d="M197 0l79 381h-225v244h277l55 266h-244v244h295l80 381h295l-80 -381h229l80 381h295l-80 -381h256v-244h-307l-55 -266h274v-244h-325l-80 -381h-295l80 381h-228l-81 -381h-295zM623 625h229l55 266h-227z" />
    <glyph glyph-name="dollar" unicode="$" horiz-adv-x="1399" 
d="M602 -18q-99 10 -177.5 39t-141 72t-110.5 97.5t-85 116.5l223 144q31 -44 63 -83t67.5 -70t77.5 -53t93 -32v434q-93 23 -180 54.5t-154.5 81.5t-108 124t-40.5 183q0 97 33.5 175.5t95 135.5t149 91.5t195.5 43.5v141h197v-147q85 -12 152 -37.5t119.5 -61t93.5 -79.5
t75 -92l-221 -160l-46 61q-23 29 -50 53t-58.5 42.5t-70.5 29.5v-399q71 -17 135.5 -37t120 -46.5t100.5 -61t77 -79.5t49 -102t17 -129q0 -84 -28 -161t-88 -137.5t-153.5 -100.5t-223.5 -51v-172h-197v172zM793 211q99 14 147.5 59.5t48.5 130.5q0 77 -48 122.5t-148 76.5
v-389zM612 1298q-93 -12 -136.5 -61.5t-43.5 -118.5q0 -38 11.5 -66t34 -49.5t56.5 -38t78 -30.5v364z" />
    <glyph glyph-name="percent" unicode="%" horiz-adv-x="2269" 
d="M1772 -20q-96 0 -172 35.5t-129 100.5t-81 156.5t-28 202.5q0 113 28.5 205t82 157t130 100.5t171.5 35.5q94 0 169.5 -35.5t128 -100.5t81 -156.5t28.5 -203.5q0 -111 -28 -203t-80.5 -157t-128.5 -101t-172 -36zM500 549q-97 0 -173.5 35.5t-129.5 100t-81 156
t-28 203.5q0 113 28.5 205t82 156.5t130 99.5t171.5 35q94 0 169.5 -35t128.5 -99.5t81 -155.5t28 -203t-28 -204t-80.5 -157t-128 -101t-170.5 -36zM541 0l905 1516h283l-906 -1516h-282zM500 756q37 0 63 20t42.5 57.5t24 90.5t7.5 120q0 137 -32.5 211t-104.5 74
q-77 0 -109.5 -75t-32.5 -207q0 -137 33 -214t109 -77zM1774 188q37 0 63 20t42.5 57.5t24 91t7.5 120.5q0 136 -32.5 209.5t-106.5 73.5q-38 0 -64.5 -19.5t-43.5 -56t-24.5 -89t-7.5 -118.5q0 -137 33 -213t109 -76z" />
    <glyph glyph-name="ampersand" unicode="&#x26;" horiz-adv-x="1522" 
d="M604 -29q-141 0 -248 28.5t-179 81t-108 127.5t-36 167t28.5 162t76.5 123.5t111 93.5t132 73q-45 87 -70.5 170t-25.5 164q0 75 25.5 144t78 122t134 85t192.5 32q103 0 177.5 -28t122.5 -74.5t70.5 -106t22.5 -123.5q0 -85 -29 -150.5t-77 -117t-111.5 -92
t-132.5 -74.5q20 -29 44 -58l48 -61l87 -102q41 -47 79 -84q37 63 61 139.5t35 167.5h281q-17 -120 -54 -239.5t-102 -225.5q65 -35 133 -51t146 -16v-268q-148 1 -264.5 29t-219.5 87q-85 -59 -190 -92t-238 -33zM653 952q39 22 72.5 47.5t57.5 55.5t37.5 66t13.5 79
q0 23 -6 46t-19 41.5t-35 30t-53 11.5q-28 0 -52 -9t-42 -28t-28.5 -47t-10.5 -65q0 -56 16.5 -112t48.5 -116zM606 201q115 0 207 59q-96 95 -207 234l-55 71l-51 70q-62 -42 -97.5 -94.5t-35.5 -118.5q0 -53 17 -94t48.5 -69.5t75.5 -43t98 -14.5z" />
    <glyph glyph-name="quotesingle" unicode="'" horiz-adv-x="541" 
d="M164 963l-35 401v152h281v-152l-35 -401h-211z" />
    <glyph glyph-name="parenleft" unicode="(" horiz-adv-x="827" 
d="M614 -420q-125 105 -222.5 217.5t-164.5 235.5t-102 259.5t-35 291.5q0 154 35 290.5t102 260t164.5 235.5t222.5 217l152 -160q-75 -83 -136 -177.5t-104.5 -200t-67.5 -222t-24 -243.5q0 -128 24.5 -246.5t69 -226t107.5 -203t141 -178.5z" />
    <glyph glyph-name="parenright" unicode=")" horiz-adv-x="827" 
d="M51 -270q77 83 139.5 178.5t107 203t69 226t24.5 246.5q0 127 -23.5 243.5t-67 222t-105 200t-136.5 177.5l154 160q125 -105 222.5 -217t164 -235.5t101 -260t34.5 -290.5q0 -155 -34.5 -291.5t-101 -259.5t-164 -235.5t-222.5 -217.5z" />
    <glyph glyph-name="asterisk" unicode="*" horiz-adv-x="1040" 
d="M375 618l-172 103l190 276l-338 -22v192l340 -24l-192 278l172 103l145 -305l146 305l174 -103l-193 -278l338 24v-192l-338 22l193 -276l-172 -103l-148 306z" />
    <glyph glyph-name="plus" unicode="+" horiz-adv-x="1323" 
d="M530 178v410h-393v260h393v409h263v-409h393v-260h-393v-410h-263z" />
    <glyph glyph-name="comma" unicode="," horiz-adv-x="578" 
d="M160 -246l86 246h-133v317h352v-272l-152 -291h-153z" />
    <glyph glyph-name="hyphen" unicode="-" horiz-adv-x="731" 
d="M96 532v222h539v-222h-539z" />
    <glyph glyph-name="hyphen" unicode="&#xad;" horiz-adv-x="731" 
d="M96 532v222h539v-222h-539z" />
    <glyph glyph-name="period" unicode="." horiz-adv-x="578" 
d="M113 0v317h352v-317h-352z" />
    <glyph glyph-name="slash" unicode="/" horiz-adv-x="1313" 
d="M47 0l881 1516h338l-881 -1516h-338z" />
    <glyph glyph-name="zero" unicode="0" horiz-adv-x="1425" 
d="M713 -29q-149 0 -266.5 56.5t-198.5 159.5t-123.5 248.5t-42.5 322.5t42.5 322t123.5 248t198.5 159.5t266.5 56.5q150 0 266.5 -56.5t197 -159.5t122.5 -248t42 -322t-42 -322.5t-122.5 -248.5t-197 -159.5t-266.5 -56.5zM713 231q146 0 222.5 133t76.5 394
q0 259 -78.5 389.5t-220.5 130.5q-149 0 -224 -129.5t-75 -390.5t77.5 -394t221.5 -133z" />
    <glyph glyph-name="one" unicode="1" horiz-adv-x="938" 
d="M66 0v260h274v954q-28 -14 -61 -26.5t-68.5 -22t-71.5 -15t-69 -5.5v272q88 3 157.5 27t120.5 72h314v-1256h239v-260h-835z" />
    <glyph glyph-name="two" unicode="2" horiz-adv-x="1257" 
d="M53 0v33q0 82 14.5 164t62 166.5t137 173t239.5 184.5l150 97q63 42 102.5 81.5t57.5 82t18 99.5q0 85 -51.5 135t-147.5 50q-45 0 -90 -14.5t-87.5 -42t-82 -68t-72.5 -92.5l-235 165q49 75 107.5 136t129.5 104t155 66.5t185 23.5q122 0 217.5 -31t161 -88.5t99.5 -139
t34 -181.5q0 -63 -11.5 -123.5t-47.5 -121.5t-102 -124.5t-175 -132.5q-82 -52 -149.5 -99.5t-116 -90t-76 -80.5t-30.5 -72h718v-260h-1114z" />
    <glyph glyph-name="three" unicode="3" horiz-adv-x="1276" 
d="M612 -29q-194 0 -338.5 65.5t-250.5 194.5l206 185q38 -46 82.5 -80t92.5 -56t97.5 -33t96.5 -11q128 0 194 54t66 156q0 63 -23 106t-68.5 69t-113 37.5t-157.5 11.5h-76v243h82q104 0 168 16t99 42.5t46.5 61t11.5 71.5t-11 68t-37 53.5t-68 34.5t-103 12
q-83 0 -171 -32t-171 -112l-182 209q51 48 115 86.5t136.5 64.5t151.5 40t160 14q124 0 219 -26t159.5 -75.5t98 -121.5t33.5 -164q0 -66 -19.5 -123.5t-57 -103t-93 -78t-127.5 -47.5q85 -14 150 -47.5t108.5 -83t65.5 -112t22 -134.5q0 -107 -43 -191.5t-121 -143
t-187.5 -89.5t-242.5 -31z" />
    <glyph glyph-name="four" unicode="4" horiz-adv-x="1384" 
d="M780 0v297h-735v242l690 977h367v-957h256v-262h-256v-297h-322zM389 559h391v559h-4z" />
    <glyph glyph-name="five" unicode="5" horiz-adv-x="1247" 
d="M600 -29q-94 0 -175 14t-151 40.5t-130 63.5t-111 83l168 219q37 -34 80.5 -62.5t92.5 -49t101 -32t105 -11.5q75 0 129.5 20t89.5 55.5t52 84.5t17 108q0 130 -66 202t-196 72q-77 0 -148 -36.5t-130 -108.5l-215 67l61 816h920l-17 -252h-647l-29 -336q19 18 48 35
t67 30t85.5 21t105.5 8q121 0 213 -37.5t154.5 -105t94 -160t31.5 -203.5q0 -121 -41.5 -221.5t-119 -172.5t-188.5 -111.5t-251 -39.5z" />
    <glyph glyph-name="six" unicode="6" horiz-adv-x="1339" 
d="M700 -29q-136 0 -249.5 49t-195.5 145t-127.5 238t-45.5 328q0 146 27.5 262.5t75 207t111.5 155.5t138.5 106.5t155 61.5t160.5 20q86 0 153 -11t119.5 -28.5t93 -40.5t74.5 -47l-141 -225q-33 22 -64.5 38.5t-65.5 27.5t-72 16.5t-83 5.5q-73 0 -135 -29.5t-108.5 -86
t-76 -138.5t-36.5 -186q80 62 173 99.5t205 37.5q101 0 190 -27.5t156 -86t105.5 -149.5t38.5 -218q0 -119 -41.5 -215.5t-117.5 -165.5t-182 -106.5t-235 -37.5zM715 223q61 0 107 21t77.5 56.5t47.5 82.5t16 98q0 48 -11.5 93t-40 80t-75.5 56t-117 21q-97 0 -175 -35
t-136 -92q12 -192 89.5 -286.5t217.5 -94.5z" />
    <glyph glyph-name="seven" unicode="7" horiz-adv-x="1104" 
d="M166 0l579 1247h-720v269h1060v-246l-583 -1270h-336z" />
    <glyph glyph-name="eight" unicode="8" horiz-adv-x="1307" 
d="M653 -29q-143 0 -256 29t-192 83t-120.5 132t-41.5 176q0 72 26.5 132.5t72.5 110.5t107 89t130 68q-62 32 -111.5 67t-84 78.5t-52.5 98t-18 126.5t34 141t101.5 123t169 86.5t235.5 32.5q138 0 239.5 -33t168 -87t99 -122.5t32.5 -140.5q0 -121 -69 -213t-193 -147
q73 -32 134 -68.5t105 -84t68.5 -110t24.5 -147.5q0 -98 -41.5 -175.5t-120 -132t-191.5 -83.5t-256 -29zM676 909q51 25 88 49.5t60.5 50.5t34.5 55.5t11 65.5q0 30 -11.5 61.5t-37 58t-66.5 43t-100 16.5t-100.5 -15t-68 -39.5t-38.5 -55.5t-12 -62q0 -43 16 -75.5t47 -59
t75.5 -49t101.5 -44.5zM653 199q65 0 116 16.5t86.5 45t54 67t18.5 82.5q0 43 -17.5 78t-54.5 66t-93 59.5t-134 60.5q-117 -57 -183.5 -120t-66.5 -144q0 -43 18.5 -81.5t53.5 -67t86 -45.5t116 -17z" />
    <glyph glyph-name="nine" unicode="9" horiz-adv-x="1339" 
d="M590 -29q-88 0 -156.5 11.5t-122.5 30t-96 42.5t-76 49l144 218q34 -23 66 -41t66.5 -30t73.5 -18t86 -6q73 0 134.5 31t108 89t75.5 141t37 188q-81 -62 -174 -99.5t-205 -37.5q-100 0 -188.5 27.5t-155 86t-105.5 149.5t-39 218q0 118 41.5 214.5t117.5 165.5
t182 106.5t235 37.5q136 0 249 -49t194.5 -145t127 -238t45.5 -328q0 -145 -27 -262t-74.5 -207t-111.5 -155t-138 -107t-154 -62t-160 -20zM621 784q96 0 174 35t135 92q-11 190 -90 281.5t-215 91.5q-62 0 -108 -20t-77.5 -54t-47 -79.5t-15.5 -96.5q0 -48 11.5 -93
t39 -80t74.5 -56t119 -21z" />
    <glyph glyph-name="colon" unicode=":" horiz-adv-x="604" 
d="M125 774v318h354v-318h-354zM125 0v317h354v-317h-354z" />
    <glyph glyph-name="semicolon" unicode=";" horiz-adv-x="604" 
d="M168 -246l88 246h-131v317h354v-264l-157 -299h-154zM125 774v318h354v-318h-354z" />
    <glyph glyph-name="less" unicode="&#x3c;" horiz-adv-x="1323" 
d="M1206 98l-1083 475v181l1083 475v-271l-731 -294l731 -295v-271z" />
    <glyph glyph-name="equal" unicode="=" horiz-adv-x="1323" 
d="M143 788v234h1035v-234h-1035zM143 322v233h1035v-233h-1035z" />
    <glyph glyph-name="greater" unicode="&#x3e;" horiz-adv-x="1323" 
d="M127 98v271l731 295l-731 294v271l1083 -475v-181z" />
    <glyph glyph-name="question" unicode="?" horiz-adv-x="1217" 
d="M432 475q-5 42 -6.5 75.5t-1.5 72.5q0 58 17 104.5t46 84t69 67.5t85 55q42 24 73 45t51.5 45t30 52.5t9.5 66.5q0 62 -50 100.5t-143 38.5q-51 0 -101 -14.5t-95.5 -39t-85.5 -57t-70 -67.5l-199 186q47 52 106.5 98.5t132 81t159.5 54.5t188 20q117 0 206.5 -28
t150.5 -78t92.5 -119t31.5 -150q0 -71 -19 -125t-51.5 -96t-76.5 -74t-94 -59q-47 -24 -79 -44.5t-52.5 -41.5t-31.5 -44t-16 -53t-5.5 -68t-0.5 -89h-270zM391 0v303h352v-303h-352z" />
    <glyph glyph-name="at" unicode="@" horiz-adv-x="1778" 
d="M870 -29q-181 0 -326 58.5t-247 163t-156.5 248t-54.5 313.5t58.5 315t164.5 250.5t255 165t329 59.5t327 -57t252 -158.5t162.5 -242t57.5 -308.5q0 -103 -27 -188.5t-78.5 -147.5t-126.5 -96.5t-172 -34.5q-61 0 -106 13.5t-77.5 37.5t-54 57.5t-34.5 74.5
q-28 -29 -60.5 -57t-72 -50t-86.5 -35.5t-103 -13.5q-63 0 -113.5 21t-86.5 61t-55 98.5t-19 134.5q0 127 31 228.5t84.5 172.5t124.5 109.5t151 38.5q49 0 85.5 -8t64.5 -22.5t49 -33.5t39 -40l14 88h250l-101 -611q-12 -63 14.5 -96t98.5 -33q48 0 89 21.5t70 63
t45.5 101.5t16.5 138q0 141 -46.5 257.5t-132 200t-206.5 129.5t-270 46q-150 0 -270 -48t-204 -134t-129.5 -205t-45.5 -262q0 -142 44 -262.5t126.5 -208t201 -136.5t267.5 -49q114 0 209 25.5t176 79.5l69 -101q-89 -63 -208.5 -97t-256.5 -34zM803 528q45 0 88 23.5
t78 58.5l51 316q-34 37 -67 53t-81 16q-51 0 -88.5 -27t-62 -71.5t-37 -101t-12.5 -115.5q0 -36 6.5 -64.5t21.5 -48t40 -29.5t63 -10z" />
    <glyph glyph-name="A" unicode="A" horiz-adv-x="1460" 
d="M35 0l536 1522h318l536 -1522h-338l-112 338h-516l-117 -338h-307zM541 580h356l-174 516h-4z" />
    <glyph glyph-name="B" unicode="B" horiz-adv-x="1460" 
d="M156 0v1516h606q69 0 136.5 -6.5t127.5 -22.5t111 -43.5t87.5 -69t57.5 -99t21 -134.5q0 -81 -23.5 -141t-63.5 -102.5t-92.5 -68t-109.5 -36.5v-5q69 -12 129 -37.5t104.5 -69t70 -108.5t25.5 -155q0 -114 -46.5 -194t-123 -129.5t-175.5 -72t-205 -22.5h-637zM483 254
h269q138 0 202 53t64 150q0 100 -70.5 149t-210.5 49h-254v-401zM483 891h246q131 0 192.5 47t61.5 135q0 89 -58.5 136.5t-191.5 47.5h-250v-366z" />
    <glyph glyph-name="C" unicode="C" horiz-adv-x="1493" 
d="M772 -29q-148 0 -274 48t-218 146t-144 246t-52 349q0 197 53.5 344.5t146.5 245t218.5 146t269.5 48.5t248.5 -36.5t177.5 -100t118.5 -151t69.5 -189.5l-315 -92q-18 65 -42.5 119t-59.5 92.5t-83.5 60t-115.5 21.5q-86 0 -151.5 -35.5t-110 -101.5t-67.5 -160
t-23 -211q0 -120 23.5 -216.5t68.5 -164t111.5 -103.5t152.5 -36q67 0 117.5 20.5t89 61t66 100t47.5 137.5l313 -70q-28 -114 -77 -209.5t-125.5 -164t-183 -106.5t-249.5 -38z" />
    <glyph glyph-name="D" unicode="D" horiz-adv-x="1516" 
d="M156 0v1516h465q173 0 321.5 -39.5t257 -128t170.5 -232t62 -350.5q0 -213 -62.5 -359.5t-172 -237t-257.5 -130t-319 -39.5h-465zM487 270h156q124 0 210.5 28.5t141 88.5t79 153t24.5 222q0 121 -25 210.5t-80 148t-142.5 87.5t-211.5 29h-152v-967z" />
    <glyph glyph-name="E" unicode="E" horiz-adv-x="1296" 
d="M156 0v1516h1032v-279h-699v-326h506v-264h-506v-377h736v-270h-1069z" />
    <glyph glyph-name="F" unicode="F" horiz-adv-x="1200" 
d="M156 0v1516h1001v-279h-668v-369h476v-264h-476v-604h-333z" />
    <glyph glyph-name="G" unicode="G" horiz-adv-x="1559" 
d="M748 -29q-172 0 -297.5 59.5t-207 165.5t-120.5 251.5t-39 316.5q0 178 48 322t137.5 246t217 157t287.5 55q108 0 203.5 -23.5t174 -80t138.5 -149.5t96 -232l-305 -84q-24 79 -54 134.5t-68 91t-84.5 51.5t-102.5 16q-31 0 -69 -7.5t-77 -27t-76 -54.5t-66 -90.5
t-46.5 -134t-17.5 -184.5t16 -186.5t43 -139.5t63.5 -98t77 -62.5t83.5 -33.5t83 -10q62 0 114.5 19t92.5 54t66.5 85.5t38.5 113.5h-264v248h581v-760h-268v209h-4q-12 -34 -43.5 -75.5t-81 -77.5t-117 -60.5t-153.5 -24.5z" />
    <glyph glyph-name="H" unicode="H" horiz-adv-x="1575" 
d="M156 0v1516h333v-588h596v588h334v-1516h-334v647h-596v-647h-333z" />
    <glyph glyph-name="I" unicode="I" horiz-adv-x="676" 
d="M172 0v1516h332v-1516h-332z" />
    <glyph glyph-name="J" unicode="J" horiz-adv-x="1096" 
d="M463 -29q-79 0 -144 13.5t-119 36t-98 53t-82 65.5l187 209q24 -21 51 -41t57.5 -35.5t63 -24.5t67.5 -9q45 0 80 14.5t59 45.5t37 80.5t13 119.5v1018h334v-1070q0 -106 -28 -193.5t-89 -150t-157 -97t-232 -34.5z" />
    <glyph glyph-name="K" unicode="K" horiz-adv-x="1470" 
d="M156 0v1516h333v-627l508 627h389l-514 -592l568 -924h-377l-408 672l-166 -187v-485h-333z" />
    <glyph glyph-name="L" unicode="L" horiz-adv-x="1200" 
d="M156 0v1516h333v-1246h668v-270h-1001z" />
    <glyph glyph-name="M" unicode="M" horiz-adv-x="1860" 
d="M156 0v1516h440l338 -1115h4l315 1115h451v-1516h-322v1034h-4q-8 -49 -17.5 -92.5t-20 -84t-22.5 -79.5l-24 -82l-227 -696h-295l-225 696l-24 80q-11 36 -21 75.5t-20.5 87t-22.5 112.5h-4v-1051h-299z" />
    <glyph glyph-name="N" unicode="N" horiz-adv-x="1591" 
d="M156 0v1516h333l635 -967h4v967h308v-1516h-308l-661 975h-4v-975h-307z" />
    <glyph glyph-name="O" unicode="O" horiz-adv-x="1597" 
d="M799 -29q-138 0 -266.5 48t-228.5 145.5t-160 245.5t-60 348q0 199 60 347t160 245.5t228.5 145.5t266.5 48q91 0 179 -21.5t167 -64.5t146.5 -107.5t116 -152t76 -197.5t27.5 -243t-27.5 -243t-76 -197.5t-116 -152.5t-146.5 -108t-167 -64.5t-179 -21.5zM799 240
q87 0 157.5 36t120 103.5t76.5 163.5t27 215t-27 213.5t-76.5 160.5t-120 101t-157.5 35q-89 0 -159.5 -35t-119.5 -101t-75.5 -160.5t-26.5 -213.5t26.5 -215t75.5 -163.5t119.5 -103.5t159.5 -36z" />
    <glyph glyph-name="P" unicode="P" horiz-adv-x="1384" 
d="M156 0v1516h551q81 0 158 -8t145.5 -29t126.5 -56t99.5 -89t65 -129t23.5 -175q0 -102 -25 -178t-69 -130.5t-103.5 -90t-129 -56t-145 -28.5t-151.5 -8h-215v-539h-331zM487 797h228q78 0 132 15t87.5 43.5t49 70.5t15.5 96q0 53 -15 94t-48.5 69.5t-88 43t-132.5 14.5
h-228v-446z" />
    <glyph glyph-name="Q" unicode="Q" horiz-adv-x="1597" 
d="M1106 -406q-115 0 -206 30t-155 84t-99 127.5t-38 160.5q-110 25 -206 85.5t-167 156t-112 225.5t-41 295q0 199 60 347t160 245.5t228.5 145.5t266.5 48q91 0 179 -21.5t167 -64.5t146.5 -107.5t116 -152t76 -197.5t27.5 -243q0 -171 -45 -305t-121.5 -230t-179 -155
t-217.5 -80q15 -46 45 -72t71 -38.5t91.5 -15.5t108.5 -3h104v-265h-260zM797 240q87 0 157.5 36t119.5 103.5t75.5 163.5t26.5 215t-26.5 213.5t-75.5 160.5t-119.5 101t-157.5 35q-89 0 -159.5 -35t-120.5 -101t-76.5 -160.5t-26.5 -213.5t26.5 -215t76.5 -163.5
t120.5 -103.5t159.5 -36z" />
    <glyph glyph-name="R" unicode="R" horiz-adv-x="1444" 
d="M156 0v1516h569q140 0 250.5 -26t187.5 -82.5t117.5 -145.5t40.5 -215q0 -90 -21 -160t-61 -123t-98.5 -90t-134.5 -60l337 -614h-352l-315 571h-193v-571h-327zM483 829h228q72 0 125.5 11t88.5 36t52.5 65t17.5 97q0 112 -70 158.5t-214 46.5h-228v-414z" />
    <glyph glyph-name="S" unicode="S" horiz-adv-x="1417" 
d="M719 -29q-123 0 -223.5 28t-180 77.5t-139.5 118t-102 149.5l252 150q31 -62 74.5 -110t96 -81t113 -50t125.5 -17q58 0 106.5 10.5t83.5 32.5t54.5 54.5t19.5 76.5q0 43 -20 74.5t-59 56.5t-96 46t-132 42l-135 38q-67 20 -128.5 45t-114.5 57.5t-92 78t-61 105
t-22 139.5q0 106 39.5 189.5t111.5 142t173 89.5t223 31q117 0 210.5 -26t167.5 -69t129 -99t95 -117l-231 -176q-30 48 -71.5 88t-90 68t-102.5 43.5t-109 15.5q-106 0 -162.5 -42t-56.5 -110q0 -45 20.5 -77.5t60.5 -57t98 -44t132 -40.5l133 -38q67 -20 128 -46
t113.5 -60t91.5 -80t61 -106.5t22 -138.5q0 -92 -35.5 -175t-109.5 -147t-188.5 -101.5t-272.5 -37.5z" />
    <glyph glyph-name="T" unicode="T" horiz-adv-x="1327" 
d="M496 0v1237h-451v279h1237v-279h-453v-1237h-333z" />
    <glyph glyph-name="U" unicode="U" horiz-adv-x="1485" 
d="M743 -25q-158 0 -273.5 42.5t-190.5 121t-111.5 190.5t-36.5 251v936h334v-928q0 -82 16 -146t50.5 -107.5t88 -66t128.5 -22.5q147 0 212.5 88t65.5 254v928h328v-934q0 -140 -36 -252.5t-111 -191t-190.5 -121t-273.5 -42.5z" />
    <glyph glyph-name="V" unicode="V" horiz-adv-x="1430" 
d="M557 -6l-522 1522h338l346 -1084h4l358 1084h314l-523 -1522h-315z" />
    <glyph glyph-name="W" unicode="W" horiz-adv-x="1958" 
d="M446 0l-403 1516h336l160 -691l20 -80l20 -79q9 -39 17 -81.5t16 -90.5h4q14 93 32 171l38 158l154 693h307l164 -697q10 -45 20 -82.5t18.5 -74.5t16.5 -77t16 -91h4q8 51 15.5 90.5t15.5 75.5t17 72l20 83l154 701h307l-395 -1516h-285l-240 1055h-4l-256 -1055h-289z
" />
    <glyph glyph-name="X" unicode="X" horiz-adv-x="1485" 
d="M66 0l485 801l-442 715h380l271 -455l256 455h344l-432 -717l491 -799h-370l-322 530l-311 -530h-350z" />
    <glyph glyph-name="Y" unicode="Y" horiz-adv-x="1415" 
d="M541 0v643l-523 873h344l347 -590l348 590h340l-525 -873v-643h-331z" />
    <glyph glyph-name="Z" unicode="Z" horiz-adv-x="1352" 
d="M61 0v229l791 1010h-739v277h1159v-238l-774 -1008h774v-270h-1211z" />
    <glyph glyph-name="bracketleft" unicode="[" horiz-adv-x="909" 
d="M141 -410v1926h709v-230h-377v-1466h377v-230h-709z" />
    <glyph glyph-name="backslash" unicode="\" horiz-adv-x="1251" 
d="M897 0l-881 1516h338l881 -1516h-338z" />
    <glyph glyph-name="bracketright" unicode="]" horiz-adv-x="909" 
d="M57 -410v230h377v1466h-377v230h709v-1926h-709z" />
    <glyph glyph-name="asciicircum" unicode="^" horiz-adv-x="1323" 
d="M578 1516h178l475 -848h-268l-297 516l-295 -516h-271z" />
    <glyph glyph-name="underscore" unicode="_" horiz-adv-x="1024" 
d="M0 -324v230h1024v-230h-1024z" />
    <glyph glyph-name="grave" unicode="`" horiz-adv-x="1024" 
d="M201 1563h329l191 -355h-217z" />
    <glyph glyph-name="a" unicode="a" horiz-adv-x="1182" 
d="M365 -16q-63 0 -119.5 20t-99.5 57.5t-68 92.5t-25 125q0 94 41 167.5t125.5 127t215 87t310.5 48.5v26q0 60 -33.5 95.5t-113.5 35.5q-105 0 -194 -38t-164 -97l-140 189q41 37 93 72t118.5 62t149 43.5t184.5 16.5q112 0 192 -27.5t131 -81.5t75 -134t24 -185v-420
q0 -99 7 -161.5t24 -104.5h-328q-11 34 -18 73.5t-7 86.5q-75 -85 -167 -130.5t-213 -45.5zM496 231q86 0 146.5 26.5t102.5 68.5v202q-195 -20 -282.5 -68.5t-87.5 -123.5q0 -53 33.5 -79t87.5 -26z" />
    <glyph glyph-name="b" unicode="b" horiz-adv-x="1278" 
d="M786 -16q-111 0 -190 38t-141 107v-129h-330v1516h330v-592q27 37 60 71.5t74 61t91 42t111 15.5q93 0 170 -35.5t132.5 -106.5t86 -177.5t30.5 -247.5t-31 -247t-87 -176t-134 -105t-172 -35zM674 231q103 0 155 82t52 232q0 68 -12.5 123t-38 93.5t-65.5 59.5t-95 21
q-32 0 -61.5 -9t-57 -23.5t-51.5 -34t-45 -40.5v-403q53 -51 103 -76t116 -25z" />
    <glyph glyph-name="c" unicode="c" horiz-adv-x="1137" 
d="M602 -23q-64 0 -128.5 12.5t-124 40.5t-111.5 72t-90 107t-60 146.5t-22 189.5q0 109 24 193.5t65 148t95.5 106.5t115.5 70t125.5 39t124.5 12q111 0 190.5 -27.5t135 -73.5t91 -106.5t59.5 -126.5l-277 -92q-16 52 -36 87.5t-45 57t-55.5 30.5t-66.5 9
q-100 0 -158.5 -82.5t-58.5 -246.5q0 -73 12 -134.5t38 -105.5t66 -69t97 -25q33 0 64 9.5t59 32t51 60t41 92.5l273 -94q-26 -64 -66 -123.5t-99 -106t-140 -74.5t-189 -28z" />
    <glyph glyph-name="d" unicode="d" horiz-adv-x="1278" 
d="M485 -16q-93 0 -170 33.5t-132.5 101.5t-86 172.5t-30.5 245.5t31 249t87 180.5t134 110t171 37.5q112 0 192.5 -39.5t139.5 -120.5v562h330v-1250q0 -99 7 -161.5t26 -104.5h-338q-6 10 -10.5 29t-7.5 42.5t-5 47.5t-2 45q-27 -37 -60 -69.5t-74 -57t-91 -39t-111 -14.5
zM608 231q31 0 61 9t57 24t51 34t44 40v403q-53 51 -103 76t-114 25q-103 0 -156 -77t-53 -226q0 -69 12.5 -125.5t39 -97t66.5 -63t95 -22.5z" />
    <glyph glyph-name="e" unicode="e" horiz-adv-x="1182" 
d="M623 -23q-107 0 -207.5 29.5t-178 96.5t-124.5 175.5t-47 266.5q0 106 25 189.5t67 146.5t97.5 107.5t116.5 72.5t123.5 40.5t118.5 12.5t115.5 -10.5t115 -37t105 -71t86.5 -112t58.5 -160.5t21.5 -217v-49h-723q6 -68 27.5 -115.5t54.5 -77.5t77 -43.5t95 -13.5
q48 0 94.5 11t88 29t77.5 41.5t64 49.5l127 -197q-96 -81 -214 -122.5t-261 -41.5zM821 651q-12 116 -64 172t-145 56q-38 0 -73 -13t-63.5 -41t-49 -71t-29.5 -103h424z" />
    <glyph glyph-name="f" unicode="f" horiz-adv-x="829" 
d="M223 0v852h-182v240h182v75q0 69 14 133t54.5 114t115 80t195.5 30q24 0 56 -2l60 -4q30 -2 53 -5t30 -4v-229q-6 1 -17.5 2.5t-25 3t-27.5 2t-26 0.5q-30 0 -58 -4t-49 -17.5t-34 -39.5t-13 -70v-65h237v-240h-237v-852h-328z" />
    <glyph glyph-name="g" unicode="g" horiz-adv-x="1260" 
d="M555 -410q-160 0 -268 17t-174 48.5t-94.5 77.5t-28.5 103q0 40 15.5 73.5t41 60.5t59.5 48.5t72 36.5q-35 23 -54.5 55.5t-19.5 75.5q0 34 12.5 65t34 59.5t50.5 53.5t61 46q-90 52 -135 133t-45 180q0 82 32.5 153.5t95 124t154 83t209.5 30.5q122 0 213.5 -31.5
t153.5 -87.5q28 24 62.5 44t71.5 34.5t75 23.5t72 11v-252q-29 0 -77.5 -4.5t-107.5 -20.5q10 -21 15.5 -48.5t5.5 -59.5q0 -83 -31.5 -154t-93 -123.5t-151.5 -82t-208 -29.5q-46 0 -88 5t-79 13q-17 -14 -27 -27t-10 -28q0 -31 31.5 -40.5t91.5 -12.5l163 -11
q141 -5 240.5 -25t163.5 -57.5t93.5 -93.5t29.5 -133q0 -84 -47 -147t-130.5 -104.5t-198.5 -62t-251 -20.5zM578 516q45 0 79.5 15t58.5 41t36 61.5t12 77.5q0 41 -12 76.5t-35.5 61.5t-58 41t-80.5 15q-45 0 -80 -15t-59 -41t-36 -61.5t-12 -76.5q0 -42 12.5 -77.5
t36.5 -61.5t58.5 -41t79.5 -15zM608 -244q63 0 115.5 7.5t90 22t58.5 35.5t21 48q0 25 -9 44t-39.5 32t-88 21.5t-154.5 13.5l-172 8l-72 6q-31 -20 -46 -45.5t-15 -52.5q0 -36 17 -62t54.5 -43.5t96.5 -26t143 -8.5z" />
    <glyph glyph-name="h" unicode="h" horiz-adv-x="1266" 
d="M125 0v1516h330v-596q24 32 59.5 66.5t82 63t105 46.5t129.5 18q70 0 129 -18t101.5 -56t66 -98.5t23.5 -144.5v-797h-330v692q0 75 -29.5 112.5t-97.5 37.5t-126 -30.5t-113 -78.5v-733h-330z" />
    <glyph glyph-name="i" unicode="i" horiz-adv-x="602" 
d="M137 0v1092h328v-1092h-328zM135 1241v264h332v-264h-332z" />
    <glyph glyph-name="j" unicode="j" horiz-adv-x="602" 
d="M111 -416q-24 0 -56 1.5t-62 4t-53 5t-30 4.5v223q7 -2 18 -4.5t24 -4t26.5 -2.5t25.5 -1q68 0 100.5 34.5t32.5 114.5v1133h328v-1196q0 -38 -4.5 -76t-17.5 -72.5t-37.5 -64.5t-63.5 -52t-96 -34.5t-135 -12.5zM135 1241v264h332v-264h-332z" />
    <glyph glyph-name="k" unicode="k" horiz-adv-x="1198" 
d="M125 0v1516h330v-832l340 408h354l-356 -408l376 -684h-340l-241 444l-133 -149v-295h-330z" />
    <glyph glyph-name="l" unicode="l" horiz-adv-x="602" 
d="M137 0v1516h328v-1516h-328z" />
    <glyph glyph-name="m" unicode="m" horiz-adv-x="1909" 
d="M125 0v1092h330v-172q24 32 59 66.5t80 63t99.5 46.5t119.5 18q68 0 119 -13.5t87 -39t58.5 -61.5t34.5 -80q25 31 60 65.5t80.5 63t100.5 47t120 18.5q83 0 143 -25t99 -69t58 -105.5t19 -134.5v-780h-330v692q0 37 -5 65t-18 47t-36.5 28.5t-59.5 9.5q-61 0 -113 -30.5
t-106 -78.5v-733h-329v692q0 37 -5 65t-18.5 47t-36.5 28.5t-59 9.5q-62 0 -114 -30.5t-107 -78.5v-733h-330z" />
    <glyph glyph-name="n" unicode="n" horiz-adv-x="1266" 
d="M127 0v1092h330v-172q24 32 59.5 66.5t82 63t105 46.5t130.5 18q69 0 127 -18t100.5 -56t66 -98.5t23.5 -144.5v-797h-328v692q0 75 -30 112.5t-99 37.5q-66 0 -124 -30.5t-113 -78.5v-733h-330z" />
    <glyph glyph-name="o" unicode="o" horiz-adv-x="1247" 
d="M625 -23q-66 0 -133.5 12.5t-129.5 40.5t-116 72t-94 107t-63 146.5t-23 189.5q0 107 23 191t62.5 147t93.5 107t116.5 71.5t129.5 40t134 12.5q66 0 133 -12.5t129 -40t115.5 -71.5t93.5 -107t63 -147t23 -191q0 -106 -23 -189.5t-63 -146.5t-93.5 -107t-115.5 -72
t-129 -40.5t-133 -12.5zM625 209q58 0 101 24t71 68t41.5 105.5t13.5 136.5q0 68 -12.5 128t-40 104.5t-70.5 70.5t-104 26q-59 0 -102.5 -24t-72 -67t-42 -104t-13.5 -134q0 -69 12.5 -129.5t39.5 -106t71 -72t107 -26.5z" />
    <glyph glyph-name="p" unicode="p" horiz-adv-x="1278" 
d="M125 -410v1502h330v-166q27 37 60 71t74 60t91 41.5t111 15.5q93 0 170 -35.5t132.5 -106.5t86 -177.5t30.5 -247.5t-31 -247t-87 -176t-134 -105t-172 -35q-111 0 -190 38t-141 107v-539h-330zM674 231q103 0 155 82t52 232q0 68 -12.5 123t-38 93.5t-65.5 59.5t-95 21
q-32 0 -61.5 -9t-57 -23.5t-51.5 -34t-45 -40.5v-403q53 -51 103 -76t116 -25z" />
    <glyph glyph-name="q" unicode="q" horiz-adv-x="1278" 
d="M821 -410v566q-27 -34 -60 -65t-74 -55t-91 -38t-111 -14q-93 0 -170 33.5t-132.5 101.5t-86 172.5t-30.5 245.5t31 249t87 180.5t134 110t171 37.5q111 0 190.5 -39t141.5 -119v136h330v-1502h-330zM608 231q31 0 61 9t57 24t51 34t44 40v403q-53 51 -103 76t-114 25
q-103 0 -156 -77t-53 -226q0 -69 12.5 -125.5t39 -97t66.5 -63t95 -22.5z" />
    <glyph glyph-name="r" unicode="r" horiz-adv-x="866" 
d="M125 0v1092h330v-183h2q22 34 53.5 70.5t76 66.5t103 49t135.5 19h11l-5 -293q-5 1 -16 2t-24 2t-25.5 1.5t-20.5 0.5q-49 0 -92 -12t-79.5 -32.5t-66 -47.5t-52.5 -57v-678h-330z" />
    <glyph glyph-name="s" unicode="s" horiz-adv-x="1094" 
d="M555 -23q-90 0 -165.5 13t-138 35.5t-113.5 53.5t-93 66l131 185q37 -32 82 -58.5t94.5 -45t101 -28.5t101.5 -10q38 0 70 6.5t55 20t36 33.5t13 47q0 28 -11.5 48.5t-36 35.5t-64 26t-95.5 21q-52 9 -103.5 20.5t-99.5 28t-89 40.5t-71 59t-47.5 82.5t-17.5 111.5
q0 82 32 146.5t88.5 108.5t134 67.5t169.5 23.5q84 0 152 -10.5t126 -30t107 -48t94 -64.5l-129 -187q-83 57 -163.5 88t-157.5 31q-71 0 -109.5 -25.5t-38.5 -70.5q0 -25 11.5 -42.5t35.5 -31t60.5 -24t87.5 -19.5q54 -9 107.5 -20t102.5 -27.5t91.5 -40t73.5 -57.5
t49 -80.5t18 -108.5q0 -99 -39.5 -169t-106.5 -114.5t-154 -65t-181 -20.5z" />
    <glyph glyph-name="t" unicode="t" horiz-adv-x="874" 
d="M584 -14q-122 0 -195 21.5t-112 62.5t-51.5 100.5t-12.5 136.5v545h-182v240h182v374h328v-374h280v-240h-280v-473q0 -44 7 -73.5t24 -47.5t46 -25.5t74 -7.5q14 0 29.5 1t30.5 2.5t27.5 4t21.5 5.5v-236q-9 -2 -34.5 -5t-57 -5.5t-65 -4t-60.5 -1.5z" />
    <glyph glyph-name="u" unicode="u" horiz-adv-x="1266" 
d="M434 -23q-70 0 -128.5 18t-101 56.5t-66 99t-23.5 144.5v797h329v-701q0 -74 30 -112.5t99 -38.5q67 0 124.5 31t113.5 79v742h330v-1092h-330v170q-25 -32 -60 -66t-81.5 -62t-105 -46.5t-130.5 -18.5z" />
    <glyph glyph-name="v" unicode="v" horiz-adv-x="1106" 
d="M387 -2l-391 1094h340l229 -727h4l230 727h309l-389 -1094h-332z" />
    <glyph glyph-name="w" unicode="w" horiz-adv-x="1587" 
d="M324 0l-320 1092h332l94 -392l20 -81l17 -76l17 -81q9 -42 18 -95h4l18 97q9 43 18 83l18 79l22 83l94 383h256l100 -390l22 -80q10 -38 18 -77l18 -82l20 -96h4q10 52 19 95l17 80q9 39 18.5 76.5t21.5 79.5l100 394h293l-319 -1092h-306l-163 666h-4l-164 -666h-303z
" />
    <glyph glyph-name="x" unicode="x" horiz-adv-x="1122" 
d="M23 0l374 563l-348 529h346l189 -301l178 301h332l-353 -529l369 -563h-344l-209 330l-203 -330h-331z" />
    <glyph glyph-name="y" unicode="y" horiz-adv-x="1147" 
d="M297 -418q-61 0 -109 4t-86 9.5t-66.5 12.5t-49.5 13l69 254l32 -8q20 -5 46.5 -9.5t59 -8t69.5 -3.5q54 0 86.5 22t52.5 73l21 53l-418 1098h340l240 -709h4l241 709h320l-459 -1207q-28 -71 -62 -127t-80 -95t-107.5 -60t-143.5 -21z" />
    <glyph glyph-name="z" unicode="z" horiz-adv-x="1085" 
d="M59 0v170l529 682h-490v240h897v-174l-530 -685h571v-233h-977z" />
    <glyph glyph-name="braceleft" unicode="{" horiz-adv-x="903" 
d="M569 -410q-71 0 -125 22.5t-90.5 62.5t-55.5 96t-19 123v296q0 75 -14 123t-42.5 75.5t-71 37.5t-100.5 10v234q58 0 100.5 10t71 37.5t42.5 75t14 122.5v297q0 67 19 123t55.5 96t90.5 62.5t125 22.5h291v-230h-90q-84 0 -122 -41.5t-38 -120.5v-254q0 -75 -11.5 -128.5
t-34 -90t-54.5 -59.5t-74 -37v-4q42 -14 74 -37t54.5 -59.5t34 -90t11.5 -128.5v-254q0 -79 38 -120.5t122 -41.5h90v-230h-291z" />
    <glyph glyph-name="bar" unicode="|" horiz-adv-x="819" 
d="M246 -410v1926h325v-1926h-325z" />
    <glyph glyph-name="braceright" unicode="}" horiz-adv-x="903" 
d="M43 -410v230h90q84 0 122 41.5t38 120.5v284q0 75 11.5 124t34 80t54.5 49t74 32v4q-42 14 -74 32t-54.5 49t-34 80t-11.5 124v284q0 79 -37 121.5t-121 42.5h-90l-2 228h322q70 0 119.5 -17.5t81 -52t45.5 -85.5t14 -118v-328q0 -75 14 -122.5t42 -75t70.5 -37.5
t100.5 -10v-234q-58 0 -100.5 -10t-70.5 -37.5t-42 -75.5t-14 -123v-327q0 -67 -14 -118t-45.5 -85.5t-81 -52t-119.5 -17.5h-322z" />
    <glyph glyph-name="asciitilde" unicode="~" horiz-adv-x="1323" 
d="M932 528q-45 0 -95 10t-100.5 25t-99.5 32l-94 31q-45 15 -82.5 25t-63.5 11q-35 0 -57.5 -18t-30.5 -75l-192 33q10 84 33.5 143.5t58.5 97t80.5 54.5t99.5 16q48 0 99.5 -10.5t102.5 -25t100 -31.5l92 -32q44 -15 80.5 -25.5t62.5 -10.5q35 0 58.5 19t31.5 75l190 -24
q-10 -85 -34 -146.5t-59.5 -100.5t-81 -57t-99.5 -16z" />
    <glyph glyph-name="exclamdown" unicode="&#xa1;" horiz-adv-x="731" 
d="M152 0l81 1036h248l84 -1036h-413zM182 1212v304h353v-304h-353z" />
    <glyph glyph-name="cent" unicode="&#xa2;" horiz-adv-x="1147" 
d="M344 35q-59 30 -109.5 75.5t-88 108.5t-59 144t-21.5 182q0 105 24 188t64.5 146t95 108t115.5 73t125 41t124 13h25q12 0 23 -2l57 195h168l-68 -226q58 -21 103 -52.5t78.5 -71t57 -84.5t40.5 -93l-254 -92q-17 56 -44 93.5t-61 60.5l-186 -635q12 -2 25.5 -3t27.5 -1
q34 0 69.5 10.5t68.5 34.5t61 62t47 93l250 -94q-26 -64 -67 -123.5t-101.5 -106t-143 -74.5t-190.5 -28q-54 0 -102 9l-74 -250h-168zM602 879q-48 -2 -90.5 -23t-74 -62t-50 -103.5t-18.5 -147.5q0 -169 59 -252z" />
    <glyph glyph-name="sterling" unicode="&#xa3;" horiz-adv-x="1411" 
d="M184 684v178h172q-32 59 -54.5 122.5t-22.5 137.5q0 89 32.5 166t92.5 134t144.5 89.5t188.5 32.5q89 0 158 -16t120.5 -44.5t88.5 -67t63 -83.5t43 -94.5t29 -99.5l-287 -62q-8 42 -20.5 81t-35.5 68t-58 46.5t-86 17.5q-72 0 -114 -43.5t-42 -122.5q0 -35 8 -68
t21.5 -64.5t31.5 -63.5l37 -66h365v-178h-277q17 -48 28 -103t11 -120q0 -57 -13 -110.5t-38 -102.5q37 -20 74.5 -32.5t79.5 -12.5q37 0 67 9.5t51 34.5t33 67.5t15 107.5h280q-3 -56 -11 -111.5t-25 -105.5t-45 -93t-70 -74t-100.5 -49t-137.5 -18q-56 0 -104.5 9
t-90.5 24.5t-78.5 36t-68.5 43.5q-66 -53 -147.5 -83t-174.5 -30q-56 0 -108.5 14t-93.5 43.5t-65.5 75t-24.5 109.5q0 65 24.5 115t65 83.5t93 50.5t107.5 17q63 0 118 -20t106 -51q0 46 -5 83t-15 69.5t-23.5 62t-30.5 61.5h-281zM481 219q-42 38 -79.5 63t-79.5 25
t-65.5 -24t-23.5 -62q0 -37 23.5 -60.5t67.5 -23.5q52 0 91.5 22.5t65.5 59.5z" />
    <glyph glyph-name="currency" unicode="&#xa4;" horiz-adv-x="1152" 
d="M1056 392l-116 -108l-200 216q-72 -48 -168 -48q-92 0 -164 48l-200 -216l-116 108l208 216q-28 40 -38 78t-10 94q0 48 10 90t38 82l-208 216l116 108l200 -216q72 48 164 48q96 0 168 -48l204 216l116 -120l-208 -204q28 -40 38 -80t10 -92q0 -96 -52 -172zM748 780
q0 80 -50 130t-126 50t-124 -50t-48 -130t50 -128t122 -48q80 0 128 48t48 128z" />
    <glyph glyph-name="yen" unicode="&#xa5;" horiz-adv-x="1401" 
d="M532 0v188h-366v179h366v139h-366v176h360l-497 834h346l327 -560l328 560h342l-502 -834h367v-176h-371v-139h371v-179h-371v-188h-334z" />
    <glyph glyph-name="brokenbar" unicode="&#xa6;" horiz-adv-x="819" 
d="M246 678v838h325v-838h-325zM246 -410v838h325v-838h-325z" />
    <glyph glyph-name="section" unicode="&#xa7;" horiz-adv-x="1194" 
d="M592 -410q-119 0 -199.5 26t-133.5 67.5t-83 93.5t-47 104l236 105q13 -38 32 -70.5t44.5 -56.5t59 -38t77.5 -14q42 0 69.5 11t43 29.5t22 42t6.5 49.5q0 33 -17.5 61.5t-50.5 55.5t-80 54l-104 60q-66 37 -130 77t-115 89.5t-82 111t-31 142.5q0 56 17.5 104t45 88
t62 71.5t69.5 53.5q-71 60 -103 124t-32 149q0 75 28.5 141t84 115.5t135.5 78.5t184 29q119 0 201.5 -26t137 -67t85.5 -93.5t47 -104.5l-233 -104q-14 37 -34 69.5t-48 56.5t-63 38t-79 14q-43 0 -72 -11t-46.5 -29t-25 -42t-7.5 -49q0 -33 19.5 -61.5t54 -55.5t82.5 -55
l106 -59q66 -37 130 -77t115 -89.5t82 -111t31 -142.5q0 -57 -17.5 -105.5t-45.5 -89t-63 -72t-70 -53.5q34 -30 58.5 -60t39.5 -62.5t22 -69t7 -78.5q0 -75 -27 -141.5t-80.5 -116t-132.5 -78.5t-182 -29zM725 340q43 29 67.5 65t24.5 74q0 37 -10.5 66t-39 58.5t-80 62.5
t-132.5 79l-45 25q-23 12 -43 25q-43 -29 -67.5 -65t-24.5 -75q0 -37 10.5 -65.5t39 -58t80 -63t132.5 -79.5q25 -12 47 -25z" />
    <glyph glyph-name="dieresis" unicode="&#xa8;" horiz-adv-x="1085" 
d="M182 1499h279v-303h-279v303zM616 1499h279v-303h-279v303z" />
    <glyph glyph-name="copyright" unicode="&#xa9;" horiz-adv-x="1776" 
d="M885 -29q-167 0 -310 60t-248 165.5t-165 248.5t-60 309q0 111 27.5 212.5t78 189.5t122 159.5t159 122.5t189.5 78.5t213 27.5q110 0 211 -27t188 -77.5t157.5 -121t121 -157.5t77.5 -188t27 -211q0 -111 -27.5 -213t-78.5 -190t-122.5 -159.5t-159 -122.5t-189 -78.5
t-211.5 -27.5zM891 115q135 0 249.5 48t198 133.5t130.5 202.5t47 255t-47.5 256.5t-132 205t-200 136t-251.5 49.5q-135 0 -250 -48.5t-198 -134t-130 -202.5t-47 -254q0 -138 47.5 -256.5t132 -205.5t200 -136t251.5 -49zM881 317q-81 0 -148.5 29.5t-115.5 86
t-74.5 139.5t-26.5 190q0 105 25.5 187t73.5 139t117 86.5t155 29.5q73 0 130 -19.5t98.5 -55t68.5 -85t39 -110.5l-183 -47q-9 33 -21 60t-29 45.5t-42 29t-59 10.5q-40 0 -71.5 -19t-53 -54.5t-32.5 -85.5t-11 -111q0 -127 43 -197.5t125 -70.5q65 0 101.5 41t53.5 122
l93 -26l34 -10l30 -8q14 -3 22.5 -5t9.5 -2q-18 -65 -45.5 -118t-69 -91t-100 -59t-137.5 -21z" />
    <glyph glyph-name="ordfeminine" unicode="&#xaa;" horiz-adv-x="915" 
d="M301 737q-45 0 -84.5 12.5t-69.5 38t-47.5 63t-17.5 87.5q0 66 28.5 119t87.5 92.5t150.5 64.5t216.5 35v19q0 40 -23 64t-79 24q-72 0 -133.5 -26t-112.5 -66l-104 131q29 27 65.5 51.5t83.5 43.5t105.5 30.5t130.5 11.5q158 0 228.5 -75t70.5 -224v-293q0 -68 4 -111.5
t18 -74.5h-235q-8 24 -13.5 50.5t-5.5 57.5q-51 -59 -115.5 -92t-148.5 -33zM393 913q60 0 102 21t70 49v141q-71 -7 -119.5 -19.5t-78.5 -30.5t-43 -40.5t-13 -48.5q0 -35 22.5 -53.5t59.5 -18.5z" />
    <glyph glyph-name="guillemotleft" unicode="&#xab;" horiz-adv-x="1296" 
d="M924 0l-342 547l342 545h313l-328 -545l328 -547h-313zM389 0l-340 547l340 545h313l-325 -545l325 -547h-313z" />
    <glyph glyph-name="logicalnot" unicode="&#xac;" horiz-adv-x="1536" 
d="M1116 352v376h-904v192h1084v-568h-180z" />
    <glyph glyph-name="registered" unicode="&#xae;" horiz-adv-x="1083" 
d="M539 600q-100 0 -186 36t-149 99.5t-98.5 149.5t-35.5 186t36.5 187t100 151t150.5 100.5t188 36.5q99 0 184.5 -36t149 -99.5t99.5 -149.5t36 -186q0 -101 -36.5 -187.5t-100.5 -150.5t-151 -100.5t-187 -36.5zM545 690q80 0 148 28.5t118 79.5t78.5 121t28.5 152
t-28.5 153t-79.5 123t-120.5 81.5t-150.5 29.5q-80 0 -148 -29t-118 -80.5t-78.5 -121.5t-28.5 -152t28.5 -152.5t79 -122t120 -81t151.5 -29.5zM354 1341h201q94 0 146.5 -41.5t52.5 -128.5q0 -60 -24.5 -94.5t-67.5 -54.5l102 -197h-131l-92 183h-62v-183h-125v516z
M547 1100q42 0 64 15t22 50q0 34 -22 50t-64 16h-68v-131h68z" />
    <glyph glyph-name="macron" unicode="&#xaf;" horiz-adv-x="1024" 
d="M172 1430h680v-234h-680v234z" />
    <glyph glyph-name="macron" unicode="&#x304;" horiz-adv-x="1024" 
d="M172 1430h680v-234h-680v234z" />
    <glyph glyph-name="degree" unicode="&#xb0;" horiz-adv-x="850" 
d="M426 885q-72 0 -133.5 24.5t-106 68t-69.5 103.5t-25 131q0 72 25 132t69.5 103.5t106 68t133.5 24.5q71 0 132 -24t105.5 -67.5t69.5 -103t25 -131.5q0 -71 -25 -131.5t-69.5 -104.5t-105.5 -68.5t-132 -24.5zM426 1040q34 0 63 12.5t49.5 35.5t32 55t11.5 71
q0 79 -43.5 124.5t-112.5 45.5q-71 0 -114.5 -45.5t-43.5 -124.5q0 -39 11.5 -71t32.5 -55t50 -35.5t64 -12.5z" />
    <glyph glyph-name="plusminus" unicode="&#xb1;" horiz-adv-x="1323" 
d="M137 270h395v336h-395v254h395v412h259v-412h395v-254h-395v-336h395v-239h-1049v239z" />
    <glyph glyph-name="uni00B2" unicode="&#xb2;" horiz-adv-x="979" 
d="M115 594q0 53 8 106.5t37.5 108.5t86 111.5t154.5 115.5l93 58q38 23 60 43t31 41.5t9 52.5q0 42 -25 64t-71 22q-47 0 -103 -34.5t-104 -113.5l-178 129q74 118 167 178t224 60q87 0 151 -21t106.5 -60t63.5 -94.5t21 -123.5q0 -42 -10 -83t-37.5 -82t-75.5 -81.5
t-123 -81.5q-47 -26 -79 -48t-52.5 -41.5t-32 -36t-16.5 -31.5h432v-211h-737v53z" />
    <glyph glyph-name="uni00B3" unicode="&#xb3;" horiz-adv-x="979" 
d="M481 524q-125 0 -228 51t-169 150l160 139q27 -37 54.5 -61.5t55.5 -39t54.5 -20.5t50.5 -6q40 0 68 8t45 22t24.5 34t7.5 43q0 63 -45 90t-147 27h-78v182h82q49 0 82 6.5t52.5 19t27.5 30.5t8 40q0 37 -27 58.5t-78 21.5q-46 0 -103 -19.5t-120 -78.5l-139 161
q83 81 182 117.5t201 36.5q168 0 255 -70.5t87 -195.5q0 -33 -8 -64.5t-25.5 -58.5t-45.5 -48.5t-67 -35.5q48 -15 81.5 -37.5t54.5 -51.5t30.5 -63.5t9.5 -72.5q0 -77 -28 -135.5t-79.5 -98.5t-124 -60t-161.5 -20z" />
    <glyph glyph-name="acute" unicode="&#xb4;" horiz-adv-x="1024" 
d="M494 1563h331l-305 -355h-217z" />
    <glyph glyph-name="uni00B5" unicode="&#xb5;" horiz-adv-x="1276" 
d="M125 -410v1502h330v-695q0 -72 30 -110.5t99 -38.5q66 0 124 30.5t113 79.5v734h330v-1092h-330v170q-21 -26 -46.5 -51.5t-57.5 -49t-70.5 -42t-83.5 -29.5q-31 -5 -58 -4t-50 12v-416h-330z" />
    <glyph glyph-name="uni00B5" unicode="&#x3bc;" horiz-adv-x="1276" 
d="M125 -410v1502h330v-695q0 -72 30 -110.5t99 -38.5q66 0 124 30.5t113 79.5v734h330v-1092h-330v170q-21 -26 -46.5 -51.5t-57.5 -49t-70.5 -42t-83.5 -29.5q-31 -5 -58 -4t-50 12v-416h-330z" />
    <glyph glyph-name="paragraph" unicode="&#xb6;" horiz-adv-x="1307" 
d="M586 -410v1051q-243 5 -370.5 116t-127.5 318q0 91 30.5 171.5t90 140.5t147 94.5t201.5 34.5h647v-1926h-221v1680h-174v-1680h-223z" />
    <glyph glyph-name="periodcentered" unicode="&#xb7;" horiz-adv-x="592" 
d="M113 530v318h366v-318h-366z" />
    <glyph glyph-name="periodcentered" unicode="&#x2219;" horiz-adv-x="592" 
d="M113 530v318h366v-318h-366z" />
    <glyph glyph-name="cedilla" unicode="&#xb8;" horiz-adv-x="1024" 
d="M539 -414q-93 0 -171 20.5t-132 55.5l59 98q46 -31 105 -46t112 -15q48 0 75 17t27 53q0 29 -18.5 42t-46.5 13q-26 0 -46.5 -9t-41.5 -26l-82 41l53 170h135l-22 -94q21 14 53.5 22.5t77.5 8.5q29 0 56 -9.5t47.5 -27.5t33 -45t12.5 -62q0 -48 -22.5 -86.5t-61 -65.5
t-90.5 -41t-112 -14z" />
    <glyph glyph-name="uni00B9" unicode="&#xb9;" horiz-adv-x="791" 
d="M129 743h176v566q-37 -17 -83 -29t-89 -12v186q59 2 103 16.5t75 45.5h258v-773h154v-206h-594v206z" />
    <glyph glyph-name="ordmasculine" unicode="&#xba;" horiz-adv-x="954" 
d="M477 737q-70 0 -140 20.5t-126.5 67t-91.5 123t-35 187.5q0 114 35 190.5t91.5 123t126.5 66t140 19.5t140 -19.5t126.5 -66t91.5 -123t35 -190.5q0 -111 -35 -187.5t-91.5 -123t-126.5 -67t-140 -20.5zM477 905q41 0 70.5 17t49 47t29 72.5t9.5 93.5q0 47 -8.5 88.5
t-27.5 72t-49 48.5t-73 18q-41 0 -70.5 -16.5t-49 -46.5t-29 -71.5t-9.5 -92.5q0 -47 8 -88.5t27 -73t49 -50t74 -18.5z" />
    <glyph glyph-name="guillemotright" unicode="&#xbb;" horiz-adv-x="1296" 
d="M594 0l328 547l-328 545h313l342 -545l-342 -547h-313zM61 0l326 547l-326 545h314l340 -545l-340 -547h-314z" />
    <glyph glyph-name="onequarter" unicode="&#xbc;" horiz-adv-x="2169" 
d="M152 745h163v517q-32 -13 -72.5 -19t-88.5 -6v217q35 1 62.5 4.5t49.5 10.5t39.5 18t32.5 26h240v-768h145v-208h-571v208zM1665 203h-440v166l430 610h272v-573h154v-203h-154v-203h-262v203zM1411 1516h283l-906 -1516h-282zM1681 389v311l-213 -311h213z" />
    <glyph glyph-name="onehalf" unicode="&#xbd;" horiz-adv-x="2234" 
d="M1374 53q0 53 9 106t38.5 107.5t86.5 111t153 118.5l82 52q35 23 58 45t34.5 45t11.5 54q0 42 -25.5 63t-68.5 21q-45 0 -100.5 -34.5t-102.5 -112.5l-178 129q73 116 166 176.5t225 60.5q82 0 146 -21t107.5 -60t66 -94t22.5 -124q0 -41 -10 -82t-36.5 -82t-73 -82
t-119.5 -81q-85 -48 -127 -88.5t-53 -69.5h425v-211h-737v53zM1411 1516h283l-906 -1516h-282zM152 745h163v517q-32 -13 -72.5 -19t-88.5 -6v217q35 1 62.5 4.5t49.5 10.5t39.5 18t32.5 26h240v-768h145v-208h-571v208z" />
    <glyph glyph-name="threequarters" unicode="&#xbe;" horiz-adv-x="2249" 
d="M481 524q-125 0 -228 51t-169 150l160 139q27 -37 54.5 -61.5t55.5 -39t54.5 -20.5t50.5 -6q40 0 68 8t45 22t24.5 34t7.5 43q0 63 -45 90t-147 27h-78v182h82q49 0 82 6.5t52.5 19t27.5 30.5t8 40q0 37 -27 58.5t-78 21.5q-46 0 -103 -19.5t-120 -78.5l-139 161
q83 81 182 117.5t201 36.5q168 0 255 -70.5t87 -195.5q0 -33 -8 -64.5t-25.5 -58.5t-45.5 -48.5t-67 -35.5q48 -15 81.5 -37.5t54.5 -51.5t30.5 -63.5t9.5 -72.5q0 -77 -28 -135.5t-79.5 -98.5t-124 -60t-161.5 -20zM1745 203h-440v166l430 610h272v-573h154v-203h-154v-203
h-262v203zM1491 1516h283l-906 -1516h-282zM1761 389v311l-213 -311h213z" />
    <glyph glyph-name="questiondown" unicode="&#xbf;" horiz-adv-x="1217" 
d="M569 -29q-116 0 -205.5 28t-151 78t-93 119t-31.5 150q0 72 19 126t52 96t77 73.5t94 58.5q70 36 107.5 65.5t54.5 65t19.5 84.5t2.5 125h270q7 -41 8 -75t1 -72q0 -59 -17 -105.5t-46 -84t-69 -67.5t-86 -54q-42 -24 -72.5 -45.5t-50 -45.5t-29 -52.5t-9.5 -65.5
q0 -62 48.5 -101t141.5 -39q51 0 101 14.5t96 39.5t85.5 57t69.5 68l199 -187q-47 -52 -106.5 -98.5t-132 -81t-159 -54.5t-188.5 -20zM473 1212v304h352v-304h-352z" />
    <glyph glyph-name="Agrave" unicode="&#xc0;" horiz-adv-x="1460" 
d="M35 0l536 1522h318l536 -1522h-338l-112 338h-516l-117 -338h-307zM541 580h356l-174 516h-4zM340 1958h329l191 -355h-217z" />
    <glyph glyph-name="Aacute" unicode="&#xc1;" horiz-adv-x="1460" 
d="M35 0l536 1522h318l536 -1522h-338l-112 338h-516l-117 -338h-307zM541 580h356l-174 516h-4zM789 1958h331l-305 -355h-217z" />
    <glyph glyph-name="Acircumflex" unicode="&#xc2;" horiz-adv-x="1460" 
d="M35 0l536 1522h318l536 -1522h-338l-112 338h-516l-117 -338h-307zM541 580h356l-174 516h-4zM621 1958h219l264 -351h-186l-191 152l-184 -152h-186z" />
    <glyph glyph-name="Atilde" unicode="&#xc3;" horiz-adv-x="1460" 
d="M35 0l536 1522h318l536 -1522h-338l-112 338h-516l-117 -338h-307zM541 580h356l-174 516h-4zM887 1583q-56 0 -96.5 18t-73.5 40l-62 39q-29 18 -63 18q-40 0 -62 -25.5t-22 -85.5h-178q0 87 17.5 148.5t49 101t76.5 58t101 18.5t96.5 -18t73.5 -39l62 -40
q29 -18 63 -18q40 0 62 25t22 85h176q0 -87 -17 -148.5t-48.5 -100.5t-76.5 -57.5t-100 -18.5z" />
    <glyph glyph-name="Adieresis" unicode="&#xc4;" horiz-adv-x="1460" 
d="M35 0l536 1522h318l536 -1522h-338l-112 338h-516l-117 -338h-307zM541 580h356l-174 516h-4zM368 1894h279v-303h-279v303zM802 1894h279v-303h-279v303z" />
    <glyph glyph-name="Aring" unicode="&#xc5;" horiz-adv-x="1460" 
d="M559 1485q-25 26 -39 61.5t-14 77.5q0 48 17 88.5t47 70.5t71.5 47t89.5 17t88.5 -17t70.5 -47t47 -70.5t17 -88.5q0 -42 -13.5 -77t-39.5 -60l524 -1487h-338l-112 340h-516l-117 -340h-305zM897 580l-174 518h-4l-178 -518h356zM731 1526q40 0 67 27.5t27 70.5
q0 42 -27 70t-67 28q-42 0 -68 -28t-26 -70q0 -43 26 -70.5t68 -27.5z" />
    <glyph glyph-name="AE" unicode="&#xc6;" horiz-adv-x="2200" 
d="M31 0l862 1516h1194v-279h-696v-326h503v-264h-503v-377h733v-270h-1063v430h-455l-239 -430h-336zM745 678h316v557h-2z" />
    <glyph glyph-name="Ccedilla" unicode="&#xc7;" horiz-adv-x="1493" 
d="M782 -414q-93 0 -171 20.5t-132 55.5l60 98q46 -31 104 -46t111 -15q49 0 75.5 17t26.5 53q0 29 -19 42t-46 13q-25 0 -45 -9t-41 -26l-82 41l47 145q-128 16 -235.5 72.5t-185.5 154t-121.5 237t-43.5 321.5q0 197 53.5 344.5t146.5 245t218.5 146t269.5 48.5t248.5 -36
t177.5 -100t118.5 -151t69.5 -190l-315 -92q-18 65 -42 119t-59 92.5t-84 60t-116 21.5q-86 0 -151.5 -35t-110 -100.5t-67.5 -159.5t-23 -211q0 -121 23.5 -217.5t68.5 -164t111.5 -104t152.5 -36.5q67 0 117.5 20.5t89 61t66 100t47.5 137.5l313 -70q-27 -111 -74 -204
t-119.5 -161t-173.5 -108t-235 -45l-19 -65q22 14 55.5 22.5t78.5 8.5q29 0 55.5 -9.5t47 -27.5t32.5 -45t12 -62q0 -48 -22.5 -86.5t-61 -65.5t-90.5 -41t-111 -14z" />
    <glyph glyph-name="Egrave" unicode="&#xc8;" horiz-adv-x="1296" 
d="M156 0v1516h1032v-279h-699v-326h506v-264h-506v-377h736v-270h-1069zM322 1958h329l191 -355h-217z" />
    <glyph glyph-name="Eacute" unicode="&#xc9;" horiz-adv-x="1296" 
d="M674 1958h331l-305 -355h-217zM156 0v1516h1032v-279h-699v-326h506v-264h-506v-377h736v-270h-1069z" />
    <glyph glyph-name="Ecircumflex" unicode="&#xca;" horiz-adv-x="1296" 
d="M559 1958h219l264 -351h-186l-191 152l-184 -152h-186zM156 0v1516h1032v-279h-699v-326h506v-264h-506v-377h736v-270h-1069z" />
    <glyph glyph-name="Edieresis" unicode="&#xcb;" horiz-adv-x="1296" 
d="M317 1894h279v-303h-279v303zM751 1894h279v-303h-279v303zM156 0v1516h1032v-279h-699v-326h506v-264h-506v-377h736v-270h-1069z" />
    <glyph glyph-name="Igrave" unicode="&#xcc;" horiz-adv-x="676" 
d="M172 0v1516h332v-1516h-332zM-44 1958h329l191 -355h-217z" />
    <glyph glyph-name="Iacute" unicode="&#xcd;" horiz-adv-x="676" 
d="M172 0v1516h332v-1516h-332zM401 1958h331l-305 -355h-217z" />
    <glyph glyph-name="Icircumflex" unicode="&#xce;" horiz-adv-x="676" 
d="M172 0v1516h332v-1516h-332zM231 1958h219l264 -351h-186l-191 152l-184 -152h-186z" />
    <glyph glyph-name="Idieresis" unicode="&#xcf;" horiz-adv-x="676" 
d="M172 0v1516h332v-1516h-332zM-22 1894h279v-303h-279v303zM412 1894h279v-303h-279v303z" />
    <glyph glyph-name="Eth" unicode="&#xd0;" horiz-adv-x="1516" 
d="M156 0v649h-136v250h136v617h465q115 0 220 -17t195.5 -54.5t163.5 -97t124.5 -143.5t79.5 -195t28 -251q0 -208 -62.5 -352.5t-172 -234.5t-257.5 -130.5t-319 -40.5h-465zM487 270h156q124 0 210.5 28.5t141 88.5t79 153t24.5 222q0 121 -25 210.5t-80 148t-142.5 87.5
t-211.5 29h-152v-338h308v-250h-308v-379z" />
    <glyph glyph-name="Ntilde" unicode="&#xd1;" horiz-adv-x="1591" 
d="M156 0v1516h333l635 -967h4v967h308v-1516h-308l-661 975h-4v-975h-307zM960 1583q-56 0 -96.5 18t-73.5 40l-62 39q-29 18 -63 18q-40 0 -62 -25.5t-22 -85.5h-178q0 87 17.5 148.5t49 101t76.5 58t101 18.5t96.5 -18t73.5 -39l62 -40q29 -18 63 -18q40 0 62 25t22 85
h176q0 -87 -17 -148.5t-48.5 -100.5t-76.5 -57.5t-100 -18.5z" />
    <glyph glyph-name="Ograve" unicode="&#xd2;" horiz-adv-x="1597" 
d="M799 -29q-138 0 -266.5 48t-228.5 145.5t-160 245.5t-60 348q0 199 60 347t160 245.5t228.5 145.5t266.5 48q91 0 179 -21.5t167 -64.5t146.5 -107.5t116 -152t76 -197.5t27.5 -243t-27.5 -243t-76 -197.5t-116 -152.5t-146.5 -108t-167 -64.5t-179 -21.5zM799 240
q87 0 157.5 36t120 103.5t76.5 163.5t27 215t-27 213.5t-76.5 160.5t-120 101t-157.5 35q-89 0 -159.5 -35t-119.5 -101t-75.5 -160.5t-26.5 -213.5t26.5 -215t75.5 -163.5t119.5 -103.5t159.5 -36zM443 1958h329l191 -355h-217z" />
    <glyph glyph-name="Oacute" unicode="&#xd3;" horiz-adv-x="1597" 
d="M820 1958h331l-305 -355h-217zM799 -29q-138 0 -266.5 48t-228.5 145.5t-160 245.5t-60 348q0 199 60 347t160 245.5t228.5 145.5t266.5 48q91 0 179 -21.5t167 -64.5t146.5 -107.5t116 -152t76 -197.5t27.5 -243t-27.5 -243t-76 -197.5t-116 -152.5t-146.5 -108
t-167 -64.5t-179 -21.5zM799 240q87 0 157.5 36t120 103.5t76.5 163.5t27 215t-27 213.5t-76.5 160.5t-120 101t-157.5 35q-89 0 -159.5 -35t-119.5 -101t-75.5 -160.5t-26.5 -213.5t26.5 -215t75.5 -163.5t119.5 -103.5t159.5 -36z" />
    <glyph glyph-name="Ocircumflex" unicode="&#xd4;" horiz-adv-x="1597" 
d="M688 1958h219l264 -351h-186l-191 152l-184 -152h-186zM799 -29q-138 0 -266.5 48t-228.5 145.5t-160 245.5t-60 348q0 199 60 347t160 245.5t228.5 145.5t266.5 48q91 0 179 -21.5t167 -64.5t146.5 -107.5t116 -152t76 -197.5t27.5 -243t-27.5 -243t-76 -197.5
t-116 -152.5t-146.5 -108t-167 -64.5t-179 -21.5zM799 240q87 0 157.5 36t120 103.5t76.5 163.5t27 215t-27 213.5t-76.5 160.5t-120 101t-157.5 35q-89 0 -159.5 -35t-119.5 -101t-75.5 -160.5t-26.5 -213.5t26.5 -215t75.5 -163.5t119.5 -103.5t159.5 -36z" />
    <glyph glyph-name="Otilde" unicode="&#xd5;" horiz-adv-x="1597" 
d="M799 -29q-138 0 -266.5 48t-228.5 145.5t-160 245.5t-60 348q0 199 60 347t160 245.5t228.5 145.5t266.5 48q91 0 179 -21.5t167 -64.5t146.5 -107.5t116 -152t76 -197.5t27.5 -243t-27.5 -243t-76 -197.5t-116 -152.5t-146.5 -108t-167 -64.5t-179 -21.5zM799 240
q87 0 157.5 36t120 103.5t76.5 163.5t27 215t-27 213.5t-76.5 160.5t-120 101t-157.5 35q-89 0 -159.5 -35t-119.5 -101t-75.5 -160.5t-26.5 -213.5t26.5 -215t75.5 -163.5t119.5 -103.5t159.5 -36zM952 1583q-56 0 -96.5 18t-73.5 39l-62 40q-29 18 -63 18q-40 0 -62 -25.5
t-22 -85.5h-178q0 87 17.5 148.5t49 101t76.5 58t101 18.5t96.5 -18t73.5 -40l62 -39q29 -18 63 -18q40 0 62 25t22 85h176q0 -87 -17 -148.5t-48.5 -100.5t-76.5 -57.5t-100 -18.5z" />
    <glyph glyph-name="Odieresis" unicode="&#xd6;" horiz-adv-x="1597" 
d="M436 1894h279v-303h-279v303zM870 1894h279v-303h-279v303zM799 -29q-138 0 -266.5 48t-228.5 145.5t-160 245.5t-60 348q0 199 60 347t160 245.5t228.5 145.5t266.5 48q91 0 179 -21.5t167 -64.5t146.5 -107.5t116 -152t76 -197.5t27.5 -243t-27.5 -243t-76 -197.5
t-116 -152.5t-146.5 -108t-167 -64.5t-179 -21.5zM799 240q87 0 157.5 36t120 103.5t76.5 163.5t27 215t-27 213.5t-76.5 160.5t-120 101t-157.5 35q-89 0 -159.5 -35t-119.5 -101t-75.5 -160.5t-26.5 -213.5t26.5 -215t75.5 -163.5t119.5 -103.5t159.5 -36z" />
    <glyph glyph-name="multiply" unicode="&#xd7;" horiz-adv-x="1323" 
d="M336 145l-191 193l322 324l-322 319l191 193l323 -322l320 322l192 -193l-319 -319l324 -320l-191 -192l-323 321z" />
    <glyph glyph-name="Oslash" unicode="&#xd8;" horiz-adv-x="1597" 
d="M1364 1266q69 -96 108 -221.5t39 -286.5q0 -133 -27.5 -243t-76 -197.5t-116 -152.5t-146.5 -108t-167 -64.5t-179 -21.5q-115 0 -223 32.5t-201 100.5l-144 -165l-159 127l159 182q-69 96 -108 222t-39 288q0 199 60 347t160 245.5t228.5 145.5t266.5 48
q114 0 222.5 -32.5t199.5 -100.5l145 166l158 -127zM559 328q95 -92 240 -92q89 0 160.5 36.5t122 104.5t77.5 164.5t27 216.5q0 75 -11 140.5t-32 121.5zM1034 1186q-46 42 -105 64t-130 22q-89 0 -161 -35.5t-122.5 -102t-78 -161.5t-27.5 -215q0 -154 43 -262z" />
    <glyph glyph-name="Ugrave" unicode="&#xd9;" horiz-adv-x="1485" 
d="M743 -25q-158 0 -273.5 42.5t-190.5 121t-111.5 190.5t-36.5 251v936h334v-928q0 -82 16 -146t50.5 -107.5t88 -66t128.5 -22.5q147 0 212.5 88t65.5 254v928h328v-934q0 -140 -36 -252.5t-111 -191t-190.5 -121t-273.5 -42.5zM389 1958h329l191 -355h-217z" />
    <glyph glyph-name="Uacute" unicode="&#xda;" horiz-adv-x="1485" 
d="M744 1958h331l-305 -355h-217zM743 -25q-158 0 -273.5 42.5t-190.5 121t-111.5 190.5t-36.5 251v936h334v-928q0 -82 16 -146t50.5 -107.5t88 -66t128.5 -22.5q147 0 212.5 88t65.5 254v928h328v-934q0 -140 -36 -252.5t-111 -191t-190.5 -121t-273.5 -42.5z" />
    <glyph glyph-name="Ucircumflex" unicode="&#xdb;" horiz-adv-x="1485" 
d="M631 1958h219l264 -351h-186l-191 152l-184 -152h-186zM743 -25q-158 0 -273.5 42.5t-190.5 121t-111.5 190.5t-36.5 251v936h334v-928q0 -82 16 -146t50.5 -107.5t88 -66t128.5 -22.5q147 0 212.5 88t65.5 254v928h328v-934q0 -140 -36 -252.5t-111 -191t-190.5 -121
t-273.5 -42.5z" />
    <glyph glyph-name="Udieresis" unicode="&#xdc;" horiz-adv-x="1485" 
d="M381 1894h279v-303h-279v303zM815 1894h279v-303h-279v303zM743 -25q-158 0 -273.5 42.5t-190.5 121t-111.5 190.5t-36.5 251v936h334v-928q0 -82 16 -146t50.5 -107.5t88 -66t128.5 -22.5q147 0 212.5 88t65.5 254v928h328v-934q0 -140 -36 -252.5t-111 -191
t-190.5 -121t-273.5 -42.5z" />
    <glyph glyph-name="Yacute" unicode="&#xdd;" horiz-adv-x="1415" 
d="M541 0v643l-523 873h344l347 -590l348 590h340l-525 -873v-643h-331zM703 1964h331l-305 -355h-217z" />
    <glyph glyph-name="Thorn" unicode="&#xde;" horiz-adv-x="1389" 
d="M156 0v1516h333v-230h211q81 0 159 -9t147 -30.5t128 -57.5t101 -91t66 -130t24 -175q0 -102 -25.5 -178t-70 -131.5t-105 -92t-130.5 -58t-146 -30t-152 -8.5h-207v-295h-333zM489 559h213q78 0 132 15t88 44t49.5 70.5t15.5 95.5q0 53 -15 95t-49 70.5t-88.5 43.5
t-132.5 15h-213v-449z" />
    <glyph glyph-name="germandbls" unicode="&#xdf;" horiz-adv-x="1399" 
d="M907 -23q-78 0 -140.5 13t-110.5 33.5t-81.5 45.5t-54.5 48l144 174q40 -34 93 -56t120 -22q40 0 72 14.5t54.5 40t34 61t11.5 77.5q0 78 -34.5 127t-94.5 77.5t-141 40.5t-173 15v219q86 1 142 17.5t88.5 45t45.5 67.5t13 85q0 34 -13 65.5t-39 55t-65 37.5t-90 14
q-115 0 -176 -61.5t-61 -202.5v-1008h-326v999q0 136 40 234t113 161t175 92.5t227 29.5q119 0 215 -26t164 -75.5t104.5 -121.5t36.5 -165q0 -65 -21 -117t-57 -91t-83 -66t-99 -43q75 -9 148.5 -36t132 -74.5t95 -117t36.5 -163.5q0 -108 -32 -191t-90.5 -139
t-140.5 -84.5t-182 -28.5z" />
    <glyph glyph-name="agrave" unicode="&#xe0;" horiz-adv-x="1182" 
d="M365 -16q-63 0 -119.5 20t-99.5 57.5t-68 92.5t-25 125q0 94 41 167.5t125.5 127t215 87t310.5 48.5v26q0 60 -33.5 95.5t-113.5 35.5q-105 0 -194 -38t-164 -97l-140 189q41 37 93 72t118.5 62t149 43.5t184.5 16.5q112 0 192 -27.5t131 -81.5t75 -134t24 -185v-420
q0 -99 7 -161.5t24 -104.5h-328q-11 34 -18 73.5t-7 86.5q-75 -85 -167 -130.5t-213 -45.5zM496 231q86 0 146.5 26.5t102.5 68.5v202q-195 -20 -282.5 -68.5t-87.5 -123.5q0 -53 33.5 -79t87.5 -26zM246 1563h329l191 -355h-217z" />
    <glyph glyph-name="aacute" unicode="&#xe1;" horiz-adv-x="1182" 
d="M365 -16q-63 0 -119.5 20t-99.5 57.5t-68 92.5t-25 125q0 94 41 167.5t125.5 127t215 87t310.5 48.5v26q0 60 -33.5 95.5t-113.5 35.5q-105 0 -194 -38t-164 -97l-140 189q41 37 93 72t118.5 62t149 43.5t184.5 16.5q112 0 192 -27.5t131 -81.5t75 -134t24 -185v-420
q0 -99 7 -161.5t24 -104.5h-328q-11 34 -18 73.5t-7 86.5q-75 -85 -167 -130.5t-213 -45.5zM496 231q86 0 146.5 26.5t102.5 68.5v202q-195 -20 -282.5 -68.5t-87.5 -123.5q0 -53 33.5 -79t87.5 -26zM617 1563h331l-305 -355h-217z" />
    <glyph glyph-name="acircumflex" unicode="&#xe2;" horiz-adv-x="1182" 
d="M365 -16q-63 0 -119.5 20t-99.5 57.5t-68 92.5t-25 125q0 94 41 167.5t125.5 127t215 87t310.5 48.5v26q0 60 -33.5 95.5t-113.5 35.5q-105 0 -194 -38t-164 -97l-140 189q41 37 93 72t118.5 62t149 43.5t184.5 16.5q112 0 192 -27.5t131 -81.5t75 -134t24 -185v-420
q0 -99 7 -161.5t24 -104.5h-328q-11 34 -18 73.5t-7 86.5q-75 -85 -167 -130.5t-213 -45.5zM496 231q86 0 146.5 26.5t102.5 68.5v202q-195 -20 -282.5 -68.5t-87.5 -123.5q0 -53 33.5 -79t87.5 -26zM484 1563h219l264 -351h-186l-191 152l-184 -152h-186z" />
    <glyph glyph-name="atilde" unicode="&#xe3;" horiz-adv-x="1182" 
d="M365 -16q-63 0 -119.5 20t-99.5 57.5t-68 92.5t-25 125q0 94 41 167.5t125.5 127t215 87t310.5 48.5v26q0 60 -33.5 95.5t-113.5 35.5q-105 0 -194 -38t-164 -97l-140 189q41 37 93 72t118.5 62t149 43.5t184.5 16.5q112 0 192 -27.5t131 -81.5t75 -134t24 -185v-420
q0 -99 7 -161.5t24 -104.5h-328q-11 34 -18 73.5t-7 86.5q-75 -85 -167 -130.5t-213 -45.5zM496 231q86 0 146.5 26.5t102.5 68.5v202q-195 -20 -282.5 -68.5t-87.5 -123.5q0 -53 33.5 -79t87.5 -26zM749 1188q-56 0 -96.5 18t-73.5 39l-62 40q-29 18 -63 18
q-40 0 -62 -25.5t-22 -85.5h-178q0 87 17.5 148.5t49 101t76.5 58t101 18.5t96.5 -18t73.5 -40l62 -39q29 -18 63 -18q40 0 62 25t22 85h176q0 -87 -17 -148.5t-48.5 -100.5t-76.5 -57.5t-100 -18.5z" />
    <glyph glyph-name="adieresis" unicode="&#xe4;" horiz-adv-x="1182" 
d="M365 -16q-63 0 -119.5 20t-99.5 57.5t-68 92.5t-25 125q0 94 41 167.5t125.5 127t215 87t310.5 48.5v26q0 60 -33.5 95.5t-113.5 35.5q-105 0 -194 -38t-164 -97l-140 189q41 37 93 72t118.5 62t149 43.5t184.5 16.5q112 0 192 -27.5t131 -81.5t75 -134t24 -185v-420
q0 -99 7 -161.5t24 -104.5h-328q-11 34 -18 73.5t-7 86.5q-75 -85 -167 -130.5t-213 -45.5zM496 231q86 0 146.5 26.5t102.5 68.5v202q-195 -20 -282.5 -68.5t-87.5 -123.5q0 -53 33.5 -79t87.5 -26zM235 1499h279v-303h-279v303zM669 1499h279v-303h-279v303z" />
    <glyph glyph-name="aring" unicode="&#xe5;" horiz-adv-x="1182" 
d="M365 -16q-63 0 -119.5 20t-99.5 57.5t-68 92.5t-25 125q0 94 41 167.5t125.5 127t215 87t310.5 48.5v26q0 60 -33.5 95.5t-113.5 35.5q-105 0 -194 -38t-164 -97l-140 189q41 37 93 72t118.5 62t149 43.5t184.5 16.5q112 0 192 -27.5t131 -81.5t75 -134t24 -185v-420
q0 -99 7 -161.5t24 -104.5h-328q-11 34 -18 73.5t-7 86.5q-75 -85 -167 -130.5t-213 -45.5zM496 231q86 0 146.5 26.5t102.5 68.5v202q-195 -20 -282.5 -68.5t-87.5 -123.5q0 -53 33.5 -79t87.5 -26zM598 1190q-48 0 -89 17t-71 47t-46.5 71.5t-16.5 89.5q0 47 16.5 87.5
t46.5 70t71 46.5t89 17t89.5 -17t71.5 -46.5t47 -70t17 -87.5q0 -48 -17 -89.5t-47 -71.5t-71.5 -47t-89.5 -17zM598 1315q42 0 68 27.5t26 72.5q0 42 -26 69t-68 27t-68 -27t-26 -69q0 -45 26 -72.5t68 -27.5z" />
    <glyph glyph-name="ae" unicode="&#xe6;" horiz-adv-x="1835" 
d="M362 -23q-62 0 -118 18.5t-98.5 54.5t-67.5 89t-25 123q0 94 41 170.5t125.5 133t215 92.5t310.5 51v26q0 60 -33.5 95.5t-115.5 35.5q-105 0 -193.5 -38t-162.5 -97l-140 189q41 37 92.5 72t118 62t149 43.5t185.5 16.5q121 0 197.5 -38.5t111.5 -98.5q28 31 64.5 56.5
t78 43.5t85.5 27.5t86 9.5q59 0 119 -10.5t115.5 -37t104 -71t84.5 -112t57 -160.5t21 -217v-49h-720q5 -68 26 -115t54 -76.5t77 -43t97 -13.5q48 0 93.5 10.5t87 28.5t77 41t63.5 49l127 -197q-94 -81 -212.5 -122.5t-260.5 -41.5q-71 0 -137 12t-124.5 39t-107 69.5
t-84.5 103.5q-103 -120 -219.5 -172t-243.5 -52zM496 225q78 0 143.5 28t128.5 91q-8 26 -13 57t-7 66q-2 17 -3.5 34t0.5 34q-106 -11 -177 -30.5t-114 -45.5t-61 -59t-18 -70q0 -53 33.5 -79t87.5 -26zM1475 651q-11 116 -63.5 171t-145.5 55q-39 0 -73.5 -13t-62.5 -40
t-48 -70t-29 -103h422z" />
    <glyph glyph-name="ccedilla" unicode="&#xe7;" horiz-adv-x="1151" 
d="M608 -414q-93 0 -171 20.5t-132 55.5l60 98q46 -31 104 -46t111 -15q49 0 75.5 17t26.5 53q0 29 -19 42t-47 13q-24 0 -44 -9t-42 -26l-81 41l49 160q-84 13 -162 50t-138 103t-96 165t-36 237q0 109 24 193.5t65 148t95.5 106.5t115.5 70t125.5 39t124.5 12
q111 0 190.5 -27.5t135 -73.5t91 -106.5t59.5 -126.5l-277 -90q-15 51 -35 86.5t-45 57t-55.5 31t-67.5 9.5q-100 0 -158.5 -83.5t-58.5 -247.5q0 -73 12 -134.5t38 -105.5t66 -69t97 -25q34 0 65 9.5t58.5 32t50.5 60t41 92.5l273 -94q-26 -62 -64 -118.5t-93.5 -101
t-130.5 -73t-175 -32.5l-21 -78q22 14 55 22.5t78 8.5q29 0 56 -9.5t47.5 -27.5t32.5 -45t12 -62q0 -48 -22.5 -86.5t-61 -65.5t-90.5 -41t-111 -14z" />
    <glyph glyph-name="egrave" unicode="&#xe8;" horiz-adv-x="1182" 
d="M623 -23q-107 0 -207.5 29.5t-178 96.5t-124.5 175.5t-47 266.5q0 106 25 189.5t67 146.5t97.5 107.5t116.5 72.5t123.5 40.5t118.5 12.5t115.5 -10.5t115 -37t105 -71t86.5 -112t58.5 -160.5t21.5 -217v-49h-723q6 -68 27.5 -115.5t54.5 -77.5t77 -43.5t95 -13.5
q48 0 94.5 11t88 29t77.5 41.5t64 49.5l127 -197q-96 -81 -214 -122.5t-261 -41.5zM821 651q-12 116 -64 172t-145 56q-38 0 -73 -13t-63.5 -41t-49 -71t-29.5 -103h424zM236 1563h329l191 -355h-217z" />
    <glyph glyph-name="eacute" unicode="&#xe9;" horiz-adv-x="1182" 
d="M617 1563h331l-305 -355h-217zM623 -23q-107 0 -207.5 29.5t-178 96.5t-124.5 175.5t-47 266.5q0 106 25 189.5t67 146.5t97.5 107.5t116.5 72.5t123.5 40.5t118.5 12.5t115.5 -10.5t115 -37t105 -71t86.5 -112t58.5 -160.5t21.5 -217v-49h-723q6 -68 27.5 -115.5
t54.5 -77.5t77 -43.5t95 -13.5q48 0 94.5 11t88 29t77.5 41.5t64 49.5l127 -197q-96 -81 -214 -122.5t-261 -41.5zM821 651q-12 116 -64 172t-145 56q-38 0 -73 -13t-63.5 -41t-49 -71t-29.5 -103h424z" />
    <glyph glyph-name="ecircumflex" unicode="&#xea;" horiz-adv-x="1182" 
d="M484 1563h219l264 -351h-186l-191 152l-184 -152h-186zM623 -23q-107 0 -207.5 29.5t-178 96.5t-124.5 175.5t-47 266.5q0 106 25 189.5t67 146.5t97.5 107.5t116.5 72.5t123.5 40.5t118.5 12.5t115.5 -10.5t115 -37t105 -71t86.5 -112t58.5 -160.5t21.5 -217v-49h-723
q6 -68 27.5 -115.5t54.5 -77.5t77 -43.5t95 -13.5q48 0 94.5 11t88 29t77.5 41.5t64 49.5l127 -197q-96 -81 -214 -122.5t-261 -41.5zM821 651q-12 116 -64 172t-145 56q-38 0 -73 -13t-63.5 -41t-49 -71t-29.5 -103h424z" />
    <glyph glyph-name="edieresis" unicode="&#xeb;" horiz-adv-x="1182" 
d="M231 1499h279v-303h-279v303zM665 1499h279v-303h-279v303zM623 -23q-107 0 -207.5 29.5t-178 96.5t-124.5 175.5t-47 266.5q0 106 25 189.5t67 146.5t97.5 107.5t116.5 72.5t123.5 40.5t118.5 12.5t115.5 -10.5t115 -37t105 -71t86.5 -112t58.5 -160.5t21.5 -217v-49
h-723q6 -68 27.5 -115.5t54.5 -77.5t77 -43.5t95 -13.5q48 0 94.5 11t88 29t77.5 41.5t64 49.5l127 -197q-96 -81 -214 -122.5t-261 -41.5zM821 651q-12 116 -64 172t-145 56q-38 0 -73 -13t-63.5 -41t-49 -71t-29.5 -103h424z" />
    <glyph glyph-name="igrave" unicode="&#xec;" horiz-adv-x="602" 
d="M137 0v1092h328v-1092h-328zM-95 1563h329l191 -355h-217z" />
    <glyph glyph-name="iacute" unicode="&#xed;" horiz-adv-x="602" 
d="M374 1563h331l-305 -355h-217zM137 0v1092h328v-1092h-328z" />
    <glyph glyph-name="icircumflex" unicode="&#xee;" horiz-adv-x="602" 
d="M194 1563h219l264 -351h-186l-191 152l-184 -152h-186zM137 0v1092h328v-1092h-328z" />
    <glyph glyph-name="idieresis" unicode="&#xef;" horiz-adv-x="602" 
d="M-59 1499h279v-303h-279v303zM375 1499h279v-303h-279v303zM137 0v1092h328v-1092h-328z" />
    <glyph glyph-name="eth" unicode="&#xf0;" horiz-adv-x="1245" 
d="M623 -23q-121 0 -222.5 34.5t-175 100.5t-114.5 161t-41 216q0 127 38 223t103 159.5t151 95.5t181 32q33 0 73 -7t81.5 -22.5t80 -40t68.5 -59.5q-16 72 -43.5 138.5t-69.5 126.5l-155 -76l-95 170l129 61l-58 56q-30 27 -65 53l156 176q54 -35 103.5 -73.5t93.5 -82.5
l166 84l92 -170l-133 -69q105 -152 157 -333.5t52 -391.5q0 -134 -41.5 -238.5t-115 -176.5t-175 -109.5t-221.5 -37.5zM623 209q103 0 164 73t61 214q0 67 -16 119.5t-45 88.5t-71 55t-93 19q-104 0 -165 -72t-61 -212q0 -137 60 -211t166 -74z" />
    <glyph glyph-name="ntilde" unicode="&#xf1;" horiz-adv-x="1266" 
d="M170 0v1092h330v-172q24 32 59.5 66.5t82 63t105 46.5t130.5 18q69 0 127 -18t100.5 -56t66 -98.5t23.5 -144.5v-797h-328v692q0 75 -30 112.5t-99 37.5q-66 0 -124 -30.5t-113 -78.5v-733h-330zM792 1188q-56 0 -96.5 18t-73.5 40l-62 39q-29 18 -63 18q-40 0 -62 -25.5
t-22 -85.5h-178q0 87 17.5 148.5t49 101t76.5 58t101 18.5t96.5 -18t73.5 -40l62 -39q29 -18 63 -18q40 0 62 25t22 85h176q0 -87 -17 -148.5t-48.5 -100.5t-76.5 -57.5t-100 -18.5z" />
    <glyph glyph-name="ograve" unicode="&#xf2;" horiz-adv-x="1247" 
d="M625 -23q-66 0 -133.5 12.5t-129.5 40.5t-116 72t-94 107t-63 146.5t-23 189.5q0 107 23 191t62.5 147t93.5 107t116.5 71.5t129.5 40t134 12.5q66 0 133 -12.5t129 -40t115.5 -71.5t93.5 -107t63 -147t23 -191q0 -106 -23 -189.5t-63 -146.5t-93.5 -107t-115.5 -72
t-129 -40.5t-133 -12.5zM625 209q58 0 101 24t71 68t41.5 105.5t13.5 136.5q0 68 -12.5 128t-40 104.5t-70.5 70.5t-104 26q-59 0 -102.5 -24t-72 -67t-42 -104t-13.5 -134q0 -69 12.5 -129.5t39.5 -106t71 -72t107 -26.5zM269 1563h329l191 -355h-217z" />
    <glyph glyph-name="oacute" unicode="&#xf3;" horiz-adv-x="1247" 
d="M648 1563h331l-305 -355h-217zM625 -23q-66 0 -133.5 12.5t-129.5 40.5t-116 72t-94 107t-63 146.5t-23 189.5q0 107 23 191t62.5 147t93.5 107t116.5 71.5t129.5 40t134 12.5q66 0 133 -12.5t129 -40t115.5 -71.5t93.5 -107t63 -147t23 -191q0 -106 -23 -189.5
t-63 -146.5t-93.5 -107t-115.5 -72t-129 -40.5t-133 -12.5zM625 209q58 0 101 24t71 68t41.5 105.5t13.5 136.5q0 68 -12.5 128t-40 104.5t-70.5 70.5t-104 26q-59 0 -102.5 -24t-72 -67t-42 -104t-13.5 -134q0 -69 12.5 -129.5t39.5 -106t71 -72t107 -26.5z" />
    <glyph glyph-name="ocircumflex" unicode="&#xf4;" horiz-adv-x="1247" 
d="M514 1563h219l264 -351h-186l-191 152l-184 -152h-186zM625 -23q-66 0 -133.5 12.5t-129.5 40.5t-116 72t-94 107t-63 146.5t-23 189.5q0 107 23 191t62.5 147t93.5 107t116.5 71.5t129.5 40t134 12.5q66 0 133 -12.5t129 -40t115.5 -71.5t93.5 -107t63 -147t23 -191
q0 -106 -23 -189.5t-63 -146.5t-93.5 -107t-115.5 -72t-129 -40.5t-133 -12.5zM625 209q58 0 101 24t71 68t41.5 105.5t13.5 136.5q0 68 -12.5 128t-40 104.5t-70.5 70.5t-104 26q-59 0 -102.5 -24t-72 -67t-42 -104t-13.5 -134q0 -69 12.5 -129.5t39.5 -106t71 -72
t107 -26.5z" />
    <glyph glyph-name="otilde" unicode="&#xf5;" horiz-adv-x="1247" 
d="M625 -23q-66 0 -133.5 12.5t-129.5 40.5t-116 72t-94 107t-63 146.5t-23 189.5q0 107 23 191t62.5 147t93.5 107t116.5 71.5t129.5 40t134 12.5q66 0 133 -12.5t129 -40t115.5 -71.5t93.5 -107t63 -147t23 -191q0 -106 -23 -189.5t-63 -146.5t-93.5 -107t-115.5 -72
t-129 -40.5t-133 -12.5zM625 209q58 0 101 24t71 68t41.5 105.5t13.5 136.5q0 68 -12.5 128t-40 104.5t-70.5 70.5t-104 26q-59 0 -102.5 -24t-72 -67t-42 -104t-13.5 -134q0 -69 12.5 -129.5t39.5 -106t71 -72t107 -26.5zM780 1188q-56 0 -96.5 18t-73.5 40l-62 39
q-29 18 -63 18q-40 0 -62 -25.5t-22 -85.5h-178q0 87 17.5 148.5t49 101t76.5 58t101 18.5t96.5 -18t73.5 -39l62 -40q29 -18 63 -18q40 0 62 25t22 85h176q0 -87 -17 -148.5t-48.5 -100.5t-76.5 -57.5t-100 -18.5z" />
    <glyph glyph-name="odieresis" unicode="&#xf6;" horiz-adv-x="1247" 
d="M262 1499h279v-303h-279v303zM696 1499h279v-303h-279v303zM625 -23q-66 0 -133.5 12.5t-129.5 40.5t-116 72t-94 107t-63 146.5t-23 189.5q0 107 23 191t62.5 147t93.5 107t116.5 71.5t129.5 40t134 12.5q66 0 133 -12.5t129 -40t115.5 -71.5t93.5 -107t63 -147t23 -191
q0 -106 -23 -189.5t-63 -146.5t-93.5 -107t-115.5 -72t-129 -40.5t-133 -12.5zM625 209q58 0 101 24t71 68t41.5 105.5t13.5 136.5q0 68 -12.5 128t-40 104.5t-70.5 70.5t-104 26q-59 0 -102.5 -24t-72 -67t-42 -104t-13.5 -134q0 -69 12.5 -129.5t39.5 -106t71 -72
t107 -26.5z" />
    <glyph glyph-name="divide" unicode="&#xf7;" horiz-adv-x="1323" 
d="M137 588v260h1049v-260h-1049zM522 197v243h277v-243h-277zM522 991v244h277v-244h-277z" />
    <glyph glyph-name="oslash" unicode="&#xf8;" horiz-adv-x="1247" 
d="M1079 907q48 -65 75.5 -154.5t27.5 -207.5q0 -106 -23 -189.5t-63 -146.5t-93.5 -107t-115.5 -72t-129 -40.5t-133 -12.5q-81 0 -161 18t-153 60l-131 -141l-129 125l125 135q-51 66 -80.5 157.5t-29.5 213.5q0 107 23 191t62.5 147t93.5 107t116.5 71.5t129.5 40
t134 12.5q83 0 166 -19.5t157 -66.5l119 131l129 -123zM768 825q-54 54 -143 54q-61 0 -105.5 -24.5t-74 -69t-44 -106.5t-14.5 -136q0 -35 3 -68.5t11 -64.5zM483 254q28 -23 62.5 -36t79.5 -13q60 0 104 24.5t73 69t43.5 107t14.5 137.5q0 32 -2.5 62.5t-7.5 58.5z" />
    <glyph glyph-name="ugrave" unicode="&#xf9;" horiz-adv-x="1266" 
d="M434 -23q-70 0 -128.5 18t-101 56.5t-66 99t-23.5 144.5v797h329v-701q0 -74 30 -112.5t99 -38.5q67 0 124.5 31t113.5 79v742h330v-1092h-330v170q-25 -32 -60 -66t-81.5 -62t-105 -46.5t-130.5 -18.5zM279 1563h329l191 -355h-217z" />
    <glyph glyph-name="uacute" unicode="&#xfa;" horiz-adv-x="1266" 
d="M639 1563h331l-305 -355h-217zM434 -23q-70 0 -128.5 18t-101 56.5t-66 99t-23.5 144.5v797h329v-701q0 -74 30 -112.5t99 -38.5q67 0 124.5 31t113.5 79v742h330v-1092h-330v170q-25 -32 -60 -66t-81.5 -62t-105 -46.5t-130.5 -18.5z" />
    <glyph glyph-name="ucircumflex" unicode="&#xfb;" horiz-adv-x="1266" 
d="M516 1563h219l264 -351h-186l-191 152l-184 -152h-186zM434 -23q-70 0 -128.5 18t-101 56.5t-66 99t-23.5 144.5v797h329v-701q0 -74 30 -112.5t99 -38.5q67 0 124.5 31t113.5 79v742h330v-1092h-330v170q-25 -32 -60 -66t-81.5 -62t-105 -46.5t-130.5 -18.5z" />
    <glyph glyph-name="udieresis" unicode="&#xfc;" horiz-adv-x="1266" 
d="M266 1499h279v-303h-279v303zM700 1499h279v-303h-279v303zM434 -23q-70 0 -128.5 18t-101 56.5t-66 99t-23.5 144.5v797h329v-701q0 -74 30 -112.5t99 -38.5q67 0 124.5 31t113.5 79v742h330v-1092h-330v170q-25 -32 -60 -66t-81.5 -62t-105 -46.5t-130.5 -18.5z" />
    <glyph glyph-name="yacute" unicode="&#xfd;" horiz-adv-x="1147" 
d="M297 -418q-61 0 -109 4t-86 9.5t-66.5 12.5t-49.5 13l69 254l32 -8q20 -5 46.5 -9.5t59 -8t69.5 -3.5q54 0 86.5 22t52.5 73l21 53l-418 1098h340l240 -709h4l241 709h320l-459 -1207q-28 -71 -62 -127t-80 -95t-107.5 -60t-143.5 -21zM570 1563h331l-305 -355h-217z" />
    <glyph glyph-name="thorn" unicode="&#xfe;" horiz-adv-x="1278" 
d="M125 -410v1926h330v-590q27 37 60 71t74 60t91 41.5t111 15.5q93 0 170 -35.5t132.5 -106.5t86 -177.5t30.5 -247.5t-31 -247t-87 -176t-134 -105t-172 -35q-111 0 -190 38t-141 107v-539h-330zM674 231q103 0 155 82t52 232q0 68 -12.5 123t-38 93.5t-65.5 59.5t-95 21
q-32 0 -61.5 -9t-57 -23.5t-51.5 -34t-45 -40.5v-403q53 -51 103 -76t116 -25z" />
    <glyph glyph-name="ydieresis" unicode="&#xff;" horiz-adv-x="1147" 
d="M297 -418q-61 0 -109 4t-86 9.5t-66.5 12.5t-49.5 13l69 254l32 -8q20 -5 46.5 -9.5t59 -8t69.5 -3.5q54 0 86.5 22t52.5 73l21 53l-418 1098h340l240 -709h4l241 709h320l-459 -1207q-28 -71 -62 -127t-80 -95t-107.5 -60t-143.5 -21zM225 1499h279v-303h-279v303z
M659 1499h279v-303h-279v303z" />
    <glyph glyph-name="Amacron" unicode="&#x100;" horiz-adv-x="1460" 
d="M35 0l536 1522h318l536 -1522h-338l-112 338h-516l-117 -338h-307zM541 580h356l-174 516h-4zM389 1825h680v-234h-680v234z" />
    <glyph glyph-name="amacron" unicode="&#x101;" horiz-adv-x="1182" 
d="M365 -16q-63 0 -119.5 20t-99.5 57.5t-68 92.5t-25 125q0 94 41 167.5t125.5 127t215 87t310.5 48.5v26q0 60 -33.5 95.5t-113.5 35.5q-105 0 -194 -38t-164 -97l-140 189q41 37 93 72t118.5 62t149 43.5t184.5 16.5q112 0 192 -27.5t131 -81.5t75 -134t24 -185v-420
q0 -99 7 -161.5t24 -104.5h-328q-11 34 -18 73.5t-7 86.5q-75 -85 -167 -130.5t-213 -45.5zM496 231q86 0 146.5 26.5t102.5 68.5v202q-195 -20 -282.5 -68.5t-87.5 -123.5q0 -53 33.5 -79t87.5 -26zM250 1430h680v-234h-680v234z" />
    <glyph glyph-name="Abreve" unicode="&#x102;" horiz-adv-x="1460" 
d="M35 0l536 1522h318l536 -1522h-338l-112 338h-516l-117 -338h-307zM541 580h356l-174 516h-4zM729 1581q-87 0 -153 29.5t-111 81t-69.5 120.5t-28.5 148h176q7 -56 26 -89.5t44.5 -52t56 -24.5t59.5 -6q30 0 60.5 6t56 24.5t44 52t25.5 89.5h176q-4 -79 -28 -148
t-69 -120.5t-111.5 -81t-153.5 -29.5z" />
    <glyph glyph-name="abreve" unicode="&#x103;" horiz-adv-x="1182" 
d="M365 -16q-63 0 -119.5 20t-99.5 57.5t-68 92.5t-25 125q0 94 41 167.5t125.5 127t215 87t310.5 48.5v26q0 60 -33.5 95.5t-113.5 35.5q-105 0 -194 -38t-164 -97l-140 189q41 37 93 72t118.5 62t149 43.5t184.5 16.5q112 0 192 -27.5t131 -81.5t75 -134t24 -185v-420
q0 -99 7 -161.5t24 -104.5h-328q-11 34 -18 73.5t-7 86.5q-75 -85 -167 -130.5t-213 -45.5zM496 231q86 0 146.5 26.5t102.5 68.5v202q-195 -20 -282.5 -68.5t-87.5 -123.5q0 -53 33.5 -79t87.5 -26zM590 1186q-87 0 -153 29.5t-111 81t-69.5 120.5t-28.5 148h176
q7 -56 26 -89.5t44.5 -52t56 -24.5t59.5 -6q30 0 60.5 6t56 24.5t44 52t25.5 89.5h176q-4 -79 -28 -148t-69 -120.5t-111.5 -81t-153.5 -29.5z" />
    <glyph glyph-name="Aogonek" unicode="&#x104;" horiz-adv-x="1460" 
d="M35 0l536 1522h318l536 -1522h-338l-112 338h-516l-117 -338h-307zM541 580h356l-174 516h-4zM1149 -383q-113 0 -171.5 41.5t-58.5 116.5q0 33 14 66t39.5 63.5t60 58.5t75.5 51h172q-79 -51 -110 -97.5t-31 -88.5q0 -15 4 -29.5t14.5 -26t28.5 -18t47 -6.5q30 0 54.5 5
t44.5 12.5t38 16.5l33 17l63 -100q-63 -37 -140.5 -59.5t-176.5 -22.5z" />
    <glyph glyph-name="aogonek" unicode="&#x105;" horiz-adv-x="1182" 
d="M365 -16q-63 0 -119.5 20t-99.5 57.5t-68 92.5t-25 125q0 94 41 167.5t125.5 127t215 87t310.5 48.5v26q0 60 -33.5 95.5t-113.5 35.5q-105 0 -194 -38t-164 -97l-140 189q41 37 93 72t118.5 62t149 43.5t184.5 16.5q112 0 192 -27.5t131 -81.5t75 -134t24 -185v-420
q0 -99 7 -161.5t24 -104.5h-328q-11 34 -18 73.5t-7 86.5q-75 -85 -167 -130.5t-213 -45.5zM496 231q86 0 146.5 26.5t102.5 68.5v202q-195 -20 -282.5 -68.5t-87.5 -123.5q0 -53 33.5 -79t87.5 -26zM830 -383q-113 0 -171.5 41.5t-58.5 116.5q0 33 14 66t39.5 63.5t60 58.5
t75.5 51h172q-79 -51 -110 -97.5t-31 -88.5q0 -15 4 -29.5t14.5 -26t28.5 -18t47 -6.5q30 0 54.5 5t44.5 12.5t38 16.5l33 17l63 -100q-63 -37 -140.5 -59.5t-176.5 -22.5z" />
    <glyph glyph-name="Cacute" unicode="&#x106;" horiz-adv-x="1493" 
d="M779 1958h331l-305 -355h-217zM772 -29q-148 0 -274 48t-218 146t-144 246t-52 349q0 197 53.5 344.5t146.5 245t218.5 146t269.5 48.5t248.5 -36.5t177.5 -100t118.5 -151t69.5 -189.5l-315 -92q-18 65 -42.5 119t-59.5 92.5t-83.5 60t-115.5 21.5q-86 0 -151.5 -35.5
t-110 -101.5t-67.5 -160t-23 -211q0 -120 23.5 -216.5t68.5 -164t111.5 -103.5t152.5 -36q67 0 117.5 20.5t89 61t66 100t47.5 137.5l313 -70q-28 -114 -77 -209.5t-125.5 -164t-183 -106.5t-249.5 -38z" />
    <glyph glyph-name="cacute" unicode="&#x107;" horiz-adv-x="1137" 
d="M623 1563h331l-305 -355h-217zM602 -23q-64 0 -128.5 12.5t-124 40.5t-111.5 72t-90 107t-60 146.5t-22 189.5q0 109 24 193.5t65 148t95.5 106.5t115.5 70t125.5 39t124.5 12q111 0 190.5 -27.5t135 -73.5t91 -106.5t59.5 -126.5l-277 -92q-16 52 -36 87.5t-45 57
t-55.5 30.5t-66.5 9q-100 0 -158.5 -82.5t-58.5 -246.5q0 -73 12 -134.5t38 -105.5t66 -69t97 -25q33 0 64 9.5t59 32t51 60t41 92.5l273 -94q-26 -64 -66 -123.5t-99 -106t-140 -74.5t-189 -28z" />
    <glyph glyph-name="Ccaron" unicode="&#x10c;" horiz-adv-x="1493" 
d="M371 1960h186l186 -152l189 152h186l-264 -351h-219zM772 -29q-148 0 -274 48t-218 146t-144 246t-52 349q0 197 53.5 344.5t146.5 245t218.5 146t269.5 48.5t248.5 -36.5t177.5 -100t118.5 -151t69.5 -189.5l-315 -92q-18 65 -42.5 119t-59.5 92.5t-83.5 60t-115.5 21.5
q-86 0 -151.5 -35.5t-110 -101.5t-67.5 -160t-23 -211q0 -120 23.5 -216.5t68.5 -164t111.5 -103.5t152.5 -36q67 0 117.5 20.5t89 61t66 100t47.5 137.5l313 -70q-28 -114 -77 -209.5t-125.5 -164t-183 -106.5t-249.5 -38z" />
    <glyph glyph-name="ccaron" unicode="&#x10d;" horiz-adv-x="1137" 
d="M195 1565h186l186 -152l189 152h186l-264 -351h-219zM602 -23q-64 0 -128.5 12.5t-124 40.5t-111.5 72t-90 107t-60 146.5t-22 189.5q0 109 24 193.5t65 148t95.5 106.5t115.5 70t125.5 39t124.5 12q111 0 190.5 -27.5t135 -73.5t91 -106.5t59.5 -126.5l-277 -92
q-16 52 -36 87.5t-45 57t-55.5 30.5t-66.5 9q-100 0 -158.5 -82.5t-58.5 -246.5q0 -73 12 -134.5t38 -105.5t66 -69t97 -25q33 0 64 9.5t59 32t51 60t41 92.5l273 -94q-26 -64 -66 -123.5t-99 -106t-140 -74.5t-189 -28z" />
    <glyph glyph-name="Dcaron" unicode="&#x10e;" horiz-adv-x="1516" 
d="M383 1960h186l186 -152l189 152h186l-264 -351h-219zM156 0v1516h465q173 0 321.5 -39.5t257 -128t170.5 -232t62 -350.5q0 -213 -62.5 -359.5t-172 -237t-257.5 -130t-319 -39.5h-465zM487 270h156q124 0 210.5 28.5t141 88.5t79 153t24.5 222q0 121 -25 210.5t-80 148
t-142.5 87.5t-211.5 29h-152v-967z" />
    <glyph glyph-name="dcaron" unicode="&#x10f;" horiz-adv-x="1278" 
d="M1352 1423h-117v279h297v-238l-123 -256h-131zM485 -16q-93 0 -170 33.5t-132.5 101.5t-86 172.5t-30.5 245.5t31 249t87 180.5t134 110t171 37.5q112 0 192.5 -39.5t139.5 -120.5v562h330v-1250q0 -99 7 -161.5t26 -104.5h-338q-6 10 -10.5 29t-7.5 42.5t-5 47.5t-2 45
q-27 -37 -60 -69.5t-74 -57t-91 -39t-111 -14.5zM608 231q31 0 61 9t57 24t51 34t44 40v403q-53 51 -103 76t-114 25q-103 0 -156 -77t-53 -226q0 -69 12.5 -125.5t39 -97t66.5 -63t95 -22.5z" />
    <glyph glyph-name="Dcroat" unicode="&#x110;" horiz-adv-x="1516" 
d="M156 0v649h-136v250h136v617h465q115 0 220 -17t195.5 -54.5t163.5 -97t124.5 -143.5t79.5 -195t28 -251q0 -208 -62.5 -352.5t-172 -234.5t-257.5 -130.5t-319 -40.5h-465zM487 270h156q124 0 210.5 28.5t141 88.5t79 153t24.5 222q0 121 -25 210.5t-80 148t-142.5 87.5
t-211.5 29h-152v-338h308v-250h-308v-379z" />
    <glyph glyph-name="dcroat" unicode="&#x111;" horiz-adv-x="1278" 
d="M647 1382h176v134h328v-134h131v-208h-131v-908q0 -99 7 -161.5t26 -104.5h-336q-6 10 -11 29t-8 42.5t-4.5 47.5t-1.5 45q-27 -37 -60.5 -69.5t-74.5 -57t-90.5 -39t-110.5 -14.5q-93 0 -170 33.5t-132.5 101.5t-86 172.5t-30.5 245.5t31 249t87 180.5t134 110t172 37.5
q111 0 191 -39.5t140 -120.5v220h-176v208zM608 231q31 0 61 9t57.5 24t51.5 34t45 40v405q-53 51 -103 76t-116 25q-103 0 -156 -78t-53 -227q0 -69 12.5 -125.5t39 -97t66.5 -63t95 -22.5z" />
    <glyph glyph-name="Emacron" unicode="&#x112;" horiz-adv-x="1296" 
d="M156 0v1516h1032v-279h-699v-326h506v-264h-506v-377h736v-270h-1069zM348 1825h680v-234h-680v234z" />
    <glyph glyph-name="emacron" unicode="&#x113;" horiz-adv-x="1182" 
d="M623 -23q-107 0 -207.5 29.5t-178 96.5t-124.5 175.5t-47 266.5q0 106 25 189.5t67 146.5t97.5 107.5t116.5 72.5t123.5 40.5t118.5 12.5t115.5 -10.5t115 -37t105 -71t86.5 -112t58.5 -160.5t21.5 -217v-49h-723q6 -68 27.5 -115.5t54.5 -77.5t77 -43.5t95 -13.5
q48 0 94.5 11t88 29t77.5 41.5t64 49.5l127 -197q-96 -81 -214 -122.5t-261 -41.5zM821 651q-12 116 -64 172t-145 56q-38 0 -73 -13t-63.5 -41t-49 -71t-29.5 -103h424zM248 1430h680v-234h-680v234z" />
    <glyph glyph-name="Edotaccent" unicode="&#x116;" horiz-adv-x="1296" 
d="M156 0v1516h1032v-279h-699v-326h506v-264h-506v-377h736v-270h-1069zM520 1896h338v-268h-338v268z" />
    <glyph glyph-name="edotaccent" unicode="&#x117;" horiz-adv-x="1182" 
d="M623 -23q-107 0 -207.5 29.5t-178 96.5t-124.5 175.5t-47 266.5q0 106 25 189.5t67 146.5t97.5 107.5t116.5 72.5t123.5 40.5t118.5 12.5t115.5 -10.5t115 -37t105 -71t86.5 -112t58.5 -160.5t21.5 -217v-49h-723q6 -68 27.5 -115.5t54.5 -77.5t77 -43.5t95 -13.5
q48 0 94.5 11t88 29t77.5 41.5t64 49.5l127 -197q-96 -81 -214 -122.5t-261 -41.5zM821 651q-12 116 -64 172t-145 56q-38 0 -73 -13t-63.5 -41t-49 -71t-29.5 -103h424zM420 1501h338v-268h-338v268z" />
    <glyph glyph-name="Eogonek" unicode="&#x118;" horiz-adv-x="1296" 
d="M959 -383q-113 0 -171.5 41.5t-58.5 116.5q0 33 14 66t39.5 63.5t60 58.5t75.5 51h172q-79 -51 -110 -97.5t-31 -88.5q0 -15 4 -29.5t14.5 -26t28.5 -18t47 -6.5q30 0 54.5 5t44.5 12.5t38 16.5l33 17l63 -100q-63 -37 -140.5 -59.5t-176.5 -22.5zM156 0v1516h1032v-279
h-699v-326h506v-264h-506v-377h736v-270h-1069z" />
    <glyph glyph-name="eogonek" unicode="&#x119;" horiz-adv-x="1182" 
d="M662 -383q-113 0 -171.5 41.5t-58.5 116.5q0 33 14 66t39.5 63.5t60 58.5t75.5 51h172q-79 -51 -110 -97.5t-31 -88.5q0 -15 4 -29.5t14.5 -26t28.5 -18t47 -6.5q30 0 54.5 5t44.5 12.5t37 16.5l34 17l63 -100q-63 -37 -140.5 -59.5t-176.5 -22.5zM623 -23
q-107 0 -207.5 29.5t-178 96.5t-124.5 175.5t-47 266.5q0 106 25 189.5t67 146.5t97.5 107.5t116.5 72.5t123.5 40.5t118.5 12.5t115.5 -10.5t115 -37t105 -71t86.5 -112t58.5 -160.5t21.5 -217v-49h-723q6 -68 27.5 -115.5t54.5 -77.5t77 -43.5t95 -13.5q48 0 94.5 11
t88 29t77.5 41.5t64 49.5l127 -197q-96 -81 -214 -122.5t-261 -41.5zM821 651q-12 116 -64 172t-145 56q-38 0 -73 -13t-63.5 -41t-49 -71t-29.5 -103h424z" />
    <glyph glyph-name="Ecaron" unicode="&#x11a;" horiz-adv-x="1296" 
d="M314 1960h186l186 -152l189 152h186l-264 -351h-219zM156 0v1516h1032v-279h-699v-326h506v-264h-506v-377h736v-270h-1069z" />
    <glyph glyph-name="ecaron" unicode="&#x11b;" horiz-adv-x="1182" 
d="M216 1565h186l186 -152l189 152h186l-264 -351h-219zM623 -23q-107 0 -207.5 29.5t-178 96.5t-124.5 175.5t-47 266.5q0 106 25 189.5t67 146.5t97.5 107.5t116.5 72.5t123.5 40.5t118.5 12.5t115.5 -10.5t115 -37t105 -71t86.5 -112t58.5 -160.5t21.5 -217v-49h-723
q6 -68 27.5 -115.5t54.5 -77.5t77 -43.5t95 -13.5q48 0 94.5 11t88 29t77.5 41.5t64 49.5l127 -197q-96 -81 -214 -122.5t-261 -41.5zM821 651q-12 116 -64 172t-145 56q-38 0 -73 -13t-63.5 -41t-49 -71t-29.5 -103h424z" />
    <glyph glyph-name="Gbreve" unicode="&#x11e;" horiz-adv-x="1559" 
d="M748 -29q-172 0 -297.5 59.5t-207 165.5t-120.5 251.5t-39 316.5q0 178 48 322t137.5 246t217 157t287.5 55q108 0 203.5 -23.5t174 -80t138.5 -149.5t96 -232l-305 -84q-24 79 -54 134.5t-68 91t-84.5 51.5t-102.5 16q-31 0 -69 -7.5t-77 -27t-76 -54.5t-66 -90.5
t-46.5 -134t-17.5 -184.5t16 -186.5t43 -139.5t63.5 -98t77 -62.5t83.5 -33.5t83 -10q62 0 114.5 19t92.5 54t66.5 85.5t38.5 113.5h-264v248h581v-760h-268v209h-4q-12 -34 -43.5 -75.5t-81 -77.5t-117 -60.5t-153.5 -24.5zM778 1581q-87 0 -153 29.5t-111 81t-69.5 120.5
t-28.5 148h176q7 -56 26 -89.5t44.5 -52t56 -24.5t59.5 -6q30 0 60.5 6t56 24.5t44 52t25.5 89.5h176q-4 -79 -28 -148t-69 -120.5t-111.5 -81t-153.5 -29.5z" />
    <glyph glyph-name="gbreve" unicode="&#x11f;" horiz-adv-x="1260" 
d="M555 -410q-160 0 -268 17t-174 48.5t-94.5 77.5t-28.5 103q0 40 15.5 73.5t41 60.5t59.5 48.5t72 36.5q-35 23 -54.5 55.5t-19.5 75.5q0 34 12.5 65t34 59.5t50.5 53.5t61 46q-90 52 -135 133t-45 180q0 82 32.5 153.5t95 124t154 83t209.5 30.5q122 0 213.5 -31.5
t153.5 -87.5q28 24 62.5 44t71.5 34.5t75 23.5t72 11v-252q-29 0 -77.5 -4.5t-107.5 -20.5q10 -21 15.5 -48.5t5.5 -59.5q0 -83 -31.5 -154t-93 -123.5t-151.5 -82t-208 -29.5q-46 0 -88 5t-79 13q-17 -14 -27 -27t-10 -28q0 -31 31.5 -40.5t91.5 -12.5l163 -11
q141 -5 240.5 -25t163.5 -57.5t93.5 -93.5t29.5 -133q0 -84 -47 -147t-130.5 -104.5t-198.5 -62t-251 -20.5zM578 516q45 0 79.5 15t58.5 41t36 61.5t12 77.5q0 41 -12 76.5t-35.5 61.5t-58 41t-80.5 15q-45 0 -80 -15t-59 -41t-36 -61.5t-12 -76.5q0 -42 12.5 -77.5
t36.5 -61.5t58.5 -41t79.5 -15zM608 -244q63 0 115.5 7.5t90 22t58.5 35.5t21 48q0 25 -9 44t-39.5 32t-88 21.5t-154.5 13.5l-172 8l-72 6q-31 -20 -46 -45.5t-15 -52.5q0 -36 17 -62t54.5 -43.5t96.5 -26t143 -8.5zM586 1186q-87 0 -153 29.5t-111 81t-69.5 120.5
t-28.5 148h176q7 -56 26 -89.5t44.5 -52t56 -24.5t59.5 -6q30 0 60.5 6t56 24.5t44 52t25.5 89.5h176q-4 -79 -28 -148t-69 -120.5t-111.5 -81t-153.5 -29.5z" />
    <glyph glyph-name="Gcommaaccent" unicode="&#x122;" horiz-adv-x="1559" 
d="M748 -377h-123v289h309v-248l-127 -266h-137zM748 -29q-172 0 -297.5 59.5t-207 165.5t-120.5 251.5t-39 316.5q0 178 48 322t137.5 246t217 157t287.5 55q108 0 203.5 -23.5t174 -80t138.5 -149.5t96 -232l-305 -84q-24 79 -54 134.5t-68 91t-84.5 51.5t-102.5 16
q-31 0 -69 -7.5t-77 -27t-76 -54.5t-66 -90.5t-46.5 -134t-17.5 -184.5t16 -186.5t43 -139.5t63.5 -98t77 -62.5t83.5 -33.5t83 -10q62 0 114.5 19t92.5 54t66.5 85.5t38.5 113.5h-264v248h581v-760h-268v209h-4q-12 -34 -43.5 -75.5t-81 -77.5t-117 -60.5t-153.5 -24.5z
" />
    <glyph glyph-name="gcommaaccent" unicode="&#x123;" horiz-adv-x="1260" 
d="M430 1446l129 266h137l-77 -223h120v-291h-309v248zM555 -410q-160 0 -268 17t-174 48.5t-94.5 77.5t-28.5 103q0 40 15.5 73.5t41 60.5t59.5 48.5t72 36.5q-35 23 -54.5 55.5t-19.5 75.5q0 34 12.5 65t34 59.5t50.5 53.5t61 46q-90 52 -135 133t-45 180q0 82 32.5 153.5
t95 124t154 83t209.5 30.5q122 0 213.5 -31.5t153.5 -87.5q28 24 62.5 44t71.5 34.5t75 23.5t72 11v-252q-29 0 -77.5 -4.5t-107.5 -20.5q10 -21 15.5 -48.5t5.5 -59.5q0 -83 -31.5 -154t-93 -123.5t-151.5 -82t-208 -29.5q-46 0 -88 5t-79 13q-17 -14 -27 -27t-10 -28
q0 -31 31.5 -40.5t91.5 -12.5l163 -11q141 -5 240.5 -25t163.5 -57.5t93.5 -93.5t29.5 -133q0 -84 -47 -147t-130.5 -104.5t-198.5 -62t-251 -20.5zM578 516q45 0 79.5 15t58.5 41t36 61.5t12 77.5q0 41 -12 76.5t-35.5 61.5t-58 41t-80.5 15q-45 0 -80 -15t-59 -41
t-36 -61.5t-12 -76.5q0 -42 12.5 -77.5t36.5 -61.5t58.5 -41t79.5 -15zM608 -244q63 0 115.5 7.5t90 22t58.5 35.5t21 48q0 25 -9 44t-39.5 32t-88 21.5t-154.5 13.5l-172 8l-72 6q-31 -20 -46 -45.5t-15 -52.5q0 -36 17 -62t54.5 -43.5t96.5 -26t143 -8.5z" />
    <glyph glyph-name="Imacron" unicode="&#x12a;" horiz-adv-x="676" 
d="M172 0v1516h332v-1516h-332zM-1 1825h680v-234h-680v234z" />
    <glyph glyph-name="imacron" unicode="&#x12b;" horiz-adv-x="602" 
d="M137 0v1092h328v-1092h-328zM-38 1430h680v-234h-680v234z" />
    <glyph glyph-name="Iogonek" unicode="&#x12e;" horiz-adv-x="676" 
d="M172 0v1516h332v-1516h-332zM233 -383q-113 0 -171.5 41.5t-58.5 116.5q0 33 14 66t39.5 63.5t60 58.5t75.5 51h172q-79 -51 -110 -97.5t-31 -88.5q0 -15 4 -29.5t14.5 -26t28.5 -18t47 -6.5q30 0 54.5 5t44.5 12.5t38 16.5l33 17l63 -100q-63 -37 -140.5 -59.5
t-176.5 -22.5z" />
    <glyph glyph-name="iogonek" unicode="&#x12f;" horiz-adv-x="602" 
d="M137 0v1092h328v-1092h-328zM135 1241v264h332v-264h-332zM198 -383q-113 0 -171.5 41.5t-58.5 116.5q0 33 14 66t39.5 63.5t60 58.5t75.5 51h172q-79 -51 -110 -97.5t-31 -88.5q0 -15 4 -29.5t14.5 -26t28.5 -18t47 -6.5q30 0 54.5 5t44.5 12.5t37 16.5l34 17l63 -100
q-63 -37 -140.5 -59.5t-176.5 -22.5z" />
    <glyph glyph-name="Idotaccent" unicode="&#x130;" horiz-adv-x="676" 
d="M172 0v1516h332v-1516h-332zM171 1896h338v-268h-338v268z" />
    <glyph glyph-name="dotlessi" unicode="&#x131;" horiz-adv-x="602" 
d="M137 0v1092h328v-1092h-328z" />
    <glyph glyph-name="Kcommaaccent" unicode="&#x136;" horiz-adv-x="1470" 
d="M702 -377h-123v289h309v-248l-127 -266h-137zM156 0v1516h333v-627l508 627h389l-514 -592l568 -924h-377l-408 672l-166 -187v-485h-333z" />
    <glyph glyph-name="kcommaaccent" unicode="&#x137;" horiz-adv-x="1198" 
d="M567 -377h-123v289h309v-248l-127 -266h-137zM125 0v1516h330v-832l340 408h354l-356 -408l376 -684h-340l-241 444l-133 -149v-295h-330z" />
    <glyph glyph-name="Lacute" unicode="&#x139;" horiz-adv-x="1200" 
d="M409 1958h331l-305 -355h-217zM156 0v1516h333v-1246h668v-270h-1001z" />
    <glyph glyph-name="lacute" unicode="&#x13a;" horiz-adv-x="602" 
d="M376 1958h331l-305 -355h-217zM137 0v1516h328v-1516h-328z" />
    <glyph glyph-name="Lcommaaccent" unicode="&#x13b;" horiz-adv-x="1200" 
d="M567 -377h-123v289h309v-248l-127 -266h-137zM156 0v1516h333v-1246h668v-270h-1001z" />
    <glyph glyph-name="lcommaaccent" unicode="&#x13c;" horiz-adv-x="602" 
d="M268 -377h-123v289h309v-248l-127 -266h-137zM137 0v1516h328v-1516h-328z" />
    <glyph glyph-name="Lcaron" unicode="&#x13d;" horiz-adv-x="1200" 
d="M778 1225h-123v289h309v-248l-127 -266h-137zM156 0v1516h333v-1246h668v-270h-1001z" />
    <glyph glyph-name="lcaron" unicode="&#x13e;" horiz-adv-x="602" 
d="M659 1423h-116v279h297v-238l-123 -256h-131zM137 0v1516h328v-1516h-328z" />
    <glyph glyph-name="Lslash" unicode="&#x141;" horiz-adv-x="1200" 
d="M158 0v657l-166 -43v248l166 45v609h331v-521l291 78v-250l-291 -75v-478h668v-270h-999z" />
    <glyph glyph-name="lslash" unicode="&#x142;" horiz-adv-x="692" 
d="M184 805l-139 -39v240l139 38v472h328v-383l135 36v-239l-135 -37v-893h-328v805z" />
    <glyph glyph-name="Nacute" unicode="&#x143;" horiz-adv-x="1591" 
d="M811 1958h331l-305 -355h-217zM156 0v1516h333l635 -967h4v967h308v-1516h-308l-661 975h-4v-975h-307z" />
    <glyph glyph-name="nacute" unicode="&#x144;" horiz-adv-x="1266" 
d="M617 1563h331l-305 -355h-217zM127 0v1092h330v-172q24 32 59.5 66.5t82 63t105 46.5t130.5 18q69 0 127 -18t100.5 -56t66 -98.5t23.5 -144.5v-797h-328v692q0 75 -30 112.5t-99 37.5q-66 0 -124 -30.5t-113 -78.5v-733h-330z" />
    <glyph glyph-name="Ncommaaccent" unicode="&#x145;" horiz-adv-x="1591" 
d="M762 -377h-123v289h309v-248l-127 -266h-137zM156 0v1516h333l635 -967h4v967h308v-1516h-308l-661 975h-4v-975h-307z" />
    <glyph glyph-name="ncommaaccent" unicode="&#x146;" horiz-adv-x="1266" 
d="M604 -377h-123v289h309v-248l-127 -266h-137zM127 0v1092h330v-172q24 32 59.5 66.5t82 63t105 46.5t130.5 18q69 0 127 -18t100.5 -56t66 -98.5t23.5 -144.5v-797h-328v692q0 75 -30 112.5t-99 37.5q-66 0 -124 -30.5t-113 -78.5v-733h-330z" />
    <glyph glyph-name="Ncaron" unicode="&#x147;" horiz-adv-x="1591" 
d="M420 1960h186l186 -152l189 152h186l-264 -351h-219zM156 0v1516h333l635 -967h4v967h308v-1516h-308l-661 975h-4v-975h-307z" />
    <glyph glyph-name="ncaron" unicode="&#x148;" horiz-adv-x="1266" 
d="M265 1565h186l186 -152l189 152h186l-264 -351h-219zM127 0v1092h330v-172q24 32 59.5 66.5t82 63t105 46.5t130.5 18q69 0 127 -18t100.5 -56t66 -98.5t23.5 -144.5v-797h-328v692q0 75 -30 112.5t-99 37.5q-66 0 -124 -30.5t-113 -78.5v-733h-330z" />
    <glyph glyph-name="Omacron" unicode="&#x14c;" horiz-adv-x="1597" 
d="M457 1825h680v-234h-680v234zM799 -29q-138 0 -266.5 48t-228.5 145.5t-160 245.5t-60 348q0 199 60 347t160 245.5t228.5 145.5t266.5 48q91 0 179 -21.5t167 -64.5t146.5 -107.5t116 -152t76 -197.5t27.5 -243t-27.5 -243t-76 -197.5t-116 -152.5t-146.5 -108
t-167 -64.5t-179 -21.5zM799 240q87 0 157.5 36t120 103.5t76.5 163.5t27 215t-27 213.5t-76.5 160.5t-120 101t-157.5 35q-89 0 -159.5 -35t-119.5 -101t-75.5 -160.5t-26.5 -213.5t26.5 -215t75.5 -163.5t119.5 -103.5t159.5 -36z" />
    <glyph glyph-name="omacron" unicode="&#x14d;" horiz-adv-x="1247" 
d="M283 1430h680v-234h-680v234zM625 -23q-66 0 -133.5 12.5t-129.5 40.5t-116 72t-94 107t-63 146.5t-23 189.5q0 107 23 191t62.5 147t93.5 107t116.5 71.5t129.5 40t134 12.5q66 0 133 -12.5t129 -40t115.5 -71.5t93.5 -107t63 -147t23 -191q0 -106 -23 -189.5
t-63 -146.5t-93.5 -107t-115.5 -72t-129 -40.5t-133 -12.5zM625 209q58 0 101 24t71 68t41.5 105.5t13.5 136.5q0 68 -12.5 128t-40 104.5t-70.5 70.5t-104 26q-59 0 -102.5 -24t-72 -67t-42 -104t-13.5 -134q0 -69 12.5 -129.5t39.5 -106t71 -72t107 -26.5z" />
    <glyph glyph-name="Ohungarumlaut" unicode="&#x150;" horiz-adv-x="1597" 
d="M639 1958h332l-328 -355h-217zM1047 1958h332l-342 -355h-219zM799 -29q-138 0 -266.5 48t-228.5 145.5t-160 245.5t-60 348q0 199 60 347t160 245.5t228.5 145.5t266.5 48q91 0 179 -21.5t167 -64.5t146.5 -107.5t116 -152t76 -197.5t27.5 -243t-27.5 -243t-76 -197.5
t-116 -152.5t-146.5 -108t-167 -64.5t-179 -21.5zM799 240q87 0 157.5 36t120 103.5t76.5 163.5t27 215t-27 213.5t-76.5 160.5t-120 101t-157.5 35q-89 0 -159.5 -35t-119.5 -101t-75.5 -160.5t-26.5 -213.5t26.5 -215t75.5 -163.5t119.5 -103.5t159.5 -36z" />
    <glyph glyph-name="ohungarumlaut" unicode="&#x151;" horiz-adv-x="1247" 
d="M483 1563h332l-328 -355h-217zM891 1563h332l-342 -355h-219zM625 -23q-66 0 -133.5 12.5t-129.5 40.5t-116 72t-94 107t-63 146.5t-23 189.5q0 107 23 191t62.5 147t93.5 107t116.5 71.5t129.5 40t134 12.5q66 0 133 -12.5t129 -40t115.5 -71.5t93.5 -107t63 -147
t23 -191q0 -106 -23 -189.5t-63 -146.5t-93.5 -107t-115.5 -72t-129 -40.5t-133 -12.5zM625 209q58 0 101 24t71 68t41.5 105.5t13.5 136.5q0 68 -12.5 128t-40 104.5t-70.5 70.5t-104 26q-59 0 -102.5 -24t-72 -67t-42 -104t-13.5 -134q0 -69 12.5 -129.5t39.5 -106t71 -72
t107 -26.5z" />
    <glyph glyph-name="OE" unicode="&#x152;" horiz-adv-x="2314" 
d="M778 -29q-90 0 -177 21.5t-164.5 64.5t-142.5 108t-112 152.5t-73.5 197.5t-26.5 243q0 199 60 347t160 245.5t228.5 145.5t266.5 48q120 0 225 -41t186 -117v130h998v-279h-699v-326h506v-264h-506v-377h736v-270h-1035v131q-81 -75 -188.5 -117.5t-241.5 -42.5z
M797 240q87 0 157.5 36t119.5 103.5t75.5 163.5t26.5 215t-26.5 213.5t-75.5 160.5t-119.5 101t-157.5 35q-89 0 -159.5 -35t-120.5 -101t-76.5 -160.5t-26.5 -213.5t26.5 -215t76.5 -163.5t120.5 -103.5t159.5 -36z" />
    <glyph glyph-name="oe" unicode="&#x153;" horiz-adv-x="1952" 
d="M623 -23q-66 0 -133 12.5t-129 40.5t-116 72t-93.5 107t-62.5 146.5t-23 189.5q0 107 22.5 191t62.5 147t93.5 107t115.5 71.5t129 40t134 12.5q114 0 213.5 -49t171.5 -156q37 53 81 92t93 64t100 37t102 12q59 0 119.5 -10.5t116.5 -37t104.5 -71t85 -112t57.5 -160.5
t21 -217v-49h-721q6 -68 26.5 -115t53.5 -76.5t77 -43t95 -13.5q48 0 94 10.5t87.5 28.5t77 41t63.5 49l129 -197q-96 -81 -214.5 -122.5t-260.5 -41.5q-118 0 -220 47t-174 146q-68 -100 -167 -146.5t-211 -46.5zM623 217q59 0 102 23t70.5 65.5t41 102.5t13.5 135
q0 68 -12.5 127t-39.5 102.5t-70 68.5t-105 25q-59 0 -102 -23t-71 -65t-41.5 -102t-13.5 -133q0 -69 12 -128.5t39 -103.5t70.5 -69t106.5 -25zM1593 651q-12 116 -64.5 171t-146.5 55q-38 0 -72 -13t-62 -40t-48.5 -70t-30.5 -103h424z" />
    <glyph glyph-name="Racute" unicode="&#x154;" horiz-adv-x="1444" 
d="M748 1958h331l-305 -355h-217zM156 0v1516h569q140 0 250.5 -26t187.5 -82.5t117.5 -145.5t40.5 -215q0 -90 -21 -160t-61 -123t-98.5 -90t-134.5 -60l337 -614h-352l-315 571h-193v-571h-327zM483 829h228q72 0 125.5 11t88.5 36t52.5 65t17.5 97q0 112 -70 158.5
t-214 46.5h-228v-414z" />
    <glyph glyph-name="racute" unicode="&#x155;" horiz-adv-x="866" 
d="M462 1563h331l-305 -355h-217zM125 0v1092h330v-183h2q22 34 53.5 70.5t76 66.5t103 49t135.5 19h11l-5 -293q-5 1 -16 2t-24 2t-25.5 1.5t-20.5 0.5q-49 0 -92 -12t-79.5 -32.5t-66 -47.5t-52.5 -57v-678h-330z" />
    <glyph glyph-name="Rcommaaccent" unicode="&#x156;" horiz-adv-x="1444" 
d="M688 -377h-123v289h309v-248l-127 -266h-137zM156 0v1516h569q140 0 250.5 -26t187.5 -82.5t117.5 -145.5t40.5 -215q0 -90 -21 -160t-61 -123t-98.5 -90t-134.5 -60l337 -614h-352l-315 571h-193v-571h-327zM483 829h228q72 0 125.5 11t88.5 36t52.5 65t17.5 97
q0 112 -70 158.5t-214 46.5h-228v-414z" />
    <glyph glyph-name="rcommaaccent" unicode="&#x157;" horiz-adv-x="866" 
d="M256 -377h-123v289h309v-248l-127 -266h-137zM125 0v1092h330v-183h2q22 34 53.5 70.5t76 66.5t103 49t135.5 19h11l-5 -293q-5 1 -16 2t-24 2t-25.5 1.5t-20.5 0.5q-49 0 -92 -12t-79.5 -32.5t-66 -47.5t-52.5 -57v-678h-330z" />
    <glyph glyph-name="Rcaron" unicode="&#x158;" horiz-adv-x="1444" 
d="M347 1960h186l186 -152l189 152h186l-264 -351h-219zM156 0v1516h569q140 0 250.5 -26t187.5 -82.5t117.5 -145.5t40.5 -215q0 -90 -21 -160t-61 -123t-98.5 -90t-134.5 -60l337 -614h-352l-315 571h-193v-571h-327zM483 829h228q72 0 125.5 11t88.5 36t52.5 65t17.5 97
q0 112 -70 158.5t-214 46.5h-228v-414z" />
    <glyph glyph-name="rcaron" unicode="&#x159;" horiz-adv-x="866" 
d="M61 1565h186l186 -152l189 152h186l-264 -351h-219zM125 0v1092h330v-183h2q22 34 53.5 70.5t76 66.5t103 49t135.5 19h11l-5 -293q-5 1 -16 2t-24 2t-25.5 1.5t-20.5 0.5q-49 0 -92 -12t-79.5 -32.5t-66 -47.5t-52.5 -57v-678h-330z" />
    <glyph glyph-name="Sacute" unicode="&#x15a;" horiz-adv-x="1417" 
d="M734 1958h331l-305 -355h-217zM719 -29q-123 0 -223.5 28t-180 77.5t-139.5 118t-102 149.5l252 150q31 -62 74.5 -110t96 -81t113 -50t125.5 -17q58 0 106.5 10.5t83.5 32.5t54.5 54.5t19.5 76.5q0 43 -20 74.5t-59 56.5t-96 46t-132 42l-135 38q-67 20 -128.5 45
t-114.5 57.5t-92 78t-61 105t-22 139.5q0 106 39.5 189.5t111.5 142t173 89.5t223 31q117 0 210.5 -26t167.5 -69t129 -99t95 -117l-231 -176q-30 48 -71.5 88t-90 68t-102.5 43.5t-109 15.5q-106 0 -162.5 -42t-56.5 -110q0 -45 20.5 -77.5t60.5 -57t98 -44t132 -40.5
l133 -38q67 -20 128 -46t113.5 -60t91.5 -80t61 -106.5t22 -138.5q0 -92 -35.5 -175t-109.5 -147t-188.5 -101.5t-272.5 -37.5z" />
    <glyph glyph-name="sacute" unicode="&#x15b;" horiz-adv-x="1094" 
d="M574 1563h331l-305 -355h-217zM555 -23q-90 0 -165.5 13t-138 35.5t-113.5 53.5t-93 66l131 185q37 -32 82 -58.5t94.5 -45t101 -28.5t101.5 -10q38 0 70 6.5t55 20t36 33.5t13 47q0 28 -11.5 48.5t-36 35.5t-64 26t-95.5 21q-52 9 -103.5 20.5t-99.5 28t-89 40.5t-71 59
t-47.5 82.5t-17.5 111.5q0 82 32 146.5t88.5 108.5t134 67.5t169.5 23.5q84 0 152 -10.5t126 -30t107 -48t94 -64.5l-129 -187q-83 57 -163.5 88t-157.5 31q-71 0 -109.5 -25.5t-38.5 -70.5q0 -25 11.5 -42.5t35.5 -31t60.5 -24t87.5 -19.5q54 -9 107.5 -20t102.5 -27.5
t91.5 -40t73.5 -57.5t49 -80.5t18 -108.5q0 -99 -39.5 -169t-106.5 -114.5t-154 -65t-181 -20.5z" />
    <glyph glyph-name="Scedilla" unicode="&#x15e;" horiz-adv-x="1417" 
d="M719 -29q-123 0 -223.5 28t-180 77.5t-139.5 118t-102 149.5l252 150q31 -62 74.5 -110t96 -81t113 -50t125.5 -17q58 0 106.5 10.5t83.5 32.5t54.5 54.5t19.5 76.5q0 43 -20 74.5t-59 56.5t-96 46t-132 42l-135 38q-67 20 -128.5 45t-114.5 57.5t-92 78t-61 105
t-22 139.5q0 106 39.5 189.5t111.5 142t173 89.5t223 31q117 0 210.5 -26t167.5 -69t129 -99t95 -117l-231 -176q-30 48 -71.5 88t-90 68t-102.5 43.5t-109 15.5q-106 0 -162.5 -42t-56.5 -110q0 -45 20.5 -77.5t60.5 -57t98 -44t132 -40.5l133 -38q67 -20 128 -46
t113.5 -60t91.5 -80t61 -106.5t22 -138.5q0 -92 -35.5 -175t-109.5 -147t-188.5 -101.5t-272.5 -37.5zM734 -414q-93 0 -171 20.5t-132 55.5l59 98q46 -31 105 -46t112 -15q48 0 75 17t27 53q0 29 -18.5 42t-46.5 13q-26 0 -46.5 -9t-41.5 -26l-82 41l53 170h135l-22 -94
q21 14 53.5 22.5t77.5 8.5q29 0 56 -9.5t47.5 -27.5t33 -45t12.5 -62q0 -48 -22.5 -86.5t-61 -65.5t-90.5 -41t-112 -14z" />
    <glyph glyph-name="scedilla" unicode="&#x15f;" horiz-adv-x="1094" 
d="M555 -23q-90 0 -165.5 13t-138 35.5t-113.5 53.5t-93 66l131 185q37 -32 82 -58.5t94.5 -45t101 -28.5t101.5 -10q38 0 70 6.5t55 20t36 33.5t13 47q0 28 -11.5 48.5t-36 35.5t-64 26t-95.5 21q-52 9 -103.5 20.5t-99.5 28t-89 40.5t-71 59t-47.5 82.5t-17.5 111.5
q0 82 32 146.5t88.5 108.5t134 67.5t169.5 23.5q84 0 152 -10.5t126 -30t107 -48t94 -64.5l-129 -187q-83 57 -163.5 88t-157.5 31q-71 0 -109.5 -25.5t-38.5 -70.5q0 -25 11.5 -42.5t35.5 -31t60.5 -24t87.5 -19.5q54 -9 107.5 -20t102.5 -27.5t91.5 -40t73.5 -57.5
t49 -80.5t18 -108.5q0 -99 -39.5 -169t-106.5 -114.5t-154 -65t-181 -20.5zM572 -414q-93 0 -171 20.5t-132 55.5l59 98q46 -31 105 -46t112 -15q48 0 75 17t27 53q0 29 -18.5 42t-46.5 13q-26 0 -46.5 -9t-41.5 -26l-82 41l53 170h135l-22 -94q21 14 53.5 22.5t77.5 8.5
q29 0 56 -9.5t47.5 -27.5t33 -45t12.5 -62q0 -48 -22.5 -86.5t-61 -65.5t-90.5 -41t-112 -14z" />
    <glyph glyph-name="Scaron" unicode="&#x160;" horiz-adv-x="1417" 
d="M334 1966h186l186 -152l189 152h186l-264 -351h-219zM719 -29q-123 0 -223.5 28t-180 77.5t-139.5 118t-102 149.5l252 150q31 -62 74.5 -110t96 -81t113 -50t125.5 -17q58 0 106.5 10.5t83.5 32.5t54.5 54.5t19.5 76.5q0 43 -20 74.5t-59 56.5t-96 46t-132 42l-135 38
q-67 20 -128.5 45t-114.5 57.5t-92 78t-61 105t-22 139.5q0 106 39.5 189.5t111.5 142t173 89.5t223 31q117 0 210.5 -26t167.5 -69t129 -99t95 -117l-231 -176q-30 48 -71.5 88t-90 68t-102.5 43.5t-109 15.5q-106 0 -162.5 -42t-56.5 -110q0 -45 20.5 -77.5t60.5 -57
t98 -44t132 -40.5l133 -38q67 -20 128 -46t113.5 -60t91.5 -80t61 -106.5t22 -138.5q0 -92 -35.5 -175t-109.5 -147t-188.5 -101.5t-272.5 -37.5z" />
    <glyph glyph-name="scaron" unicode="&#x161;" horiz-adv-x="1094" 
d="M176 1565h186l186 -152l189 152h186l-264 -351h-219zM555 -23q-90 0 -165.5 13t-138 35.5t-113.5 53.5t-93 66l131 185q37 -32 82 -58.5t94.5 -45t101 -28.5t101.5 -10q38 0 70 6.5t55 20t36 33.5t13 47q0 28 -11.5 48.5t-36 35.5t-64 26t-95.5 21q-52 9 -103.5 20.5
t-99.5 28t-89 40.5t-71 59t-47.5 82.5t-17.5 111.5q0 82 32 146.5t88.5 108.5t134 67.5t169.5 23.5q84 0 152 -10.5t126 -30t107 -48t94 -64.5l-129 -187q-83 57 -163.5 88t-157.5 31q-71 0 -109.5 -25.5t-38.5 -70.5q0 -25 11.5 -42.5t35.5 -31t60.5 -24t87.5 -19.5
q54 -9 107.5 -20t102.5 -27.5t91.5 -40t73.5 -57.5t49 -80.5t18 -108.5q0 -99 -39.5 -169t-106.5 -114.5t-154 -65t-181 -20.5z" />
    <glyph glyph-name="Tcommaaccent" unicode="&#x162;" horiz-adv-x="1327" 
d="M631 -377h-123v289h309v-248l-127 -266h-137zM496 0v1237h-451v279h1237v-279h-453v-1237h-333z" />
    <glyph glyph-name="Tcommaaccent" unicode="&#x21a;" horiz-adv-x="1327" 
d="M631 -377h-123v289h309v-248l-127 -266h-137zM496 0v1237h-451v279h1237v-279h-453v-1237h-333z" />
    <glyph glyph-name="tcommaaccent" unicode="&#x163;" horiz-adv-x="874" 
d="M375 -377h-123v289h309v-248l-127 -266h-137zM584 -14q-122 0 -195 21.5t-112 62.5t-51.5 100.5t-12.5 136.5v545h-182v240h182v374h328v-374h280v-240h-280v-473q0 -44 7 -73.5t24 -47.5t46 -25.5t74 -7.5q14 0 29.5 1t30.5 2.5t27.5 4t21.5 5.5v-236q-9 -2 -34.5 -5
t-57 -5.5t-65 -4t-60.5 -1.5z" />
    <glyph glyph-name="tcommaaccent" unicode="&#x21b;" horiz-adv-x="874" 
d="M375 -377h-123v289h309v-248l-127 -266h-137zM584 -14q-122 0 -195 21.5t-112 62.5t-51.5 100.5t-12.5 136.5v545h-182v240h182v374h328v-374h280v-240h-280v-473q0 -44 7 -73.5t24 -47.5t46 -25.5t74 -7.5q14 0 29.5 1t30.5 2.5t27.5 4t21.5 5.5v-236q-9 -2 -34.5 -5
t-57 -5.5t-65 -4t-60.5 -1.5z" />
    <glyph glyph-name="Tcaron" unicode="&#x164;" horiz-adv-x="1327" 
d="M289 1960h186l186 -152l189 152h186l-264 -351h-219zM496 0v1237h-451v279h1237v-279h-453v-1237h-333z" />
    <glyph glyph-name="tcaron" unicode="&#x165;" horiz-adv-x="874" 
d="M756 1448h-117v278h297v-237l-123 -256h-131zM584 -14q-122 0 -195 21.5t-112 62.5t-51.5 100.5t-12.5 136.5v545h-182v240h182v374h328v-374h280v-240h-280v-473q0 -44 7 -73.5t24 -47.5t46 -25.5t74 -7.5q14 0 29.5 1t30.5 2.5t27.5 4t21.5 5.5v-236q-9 -2 -34.5 -5
t-57 -5.5t-65 -4t-60.5 -1.5z" />
    <glyph glyph-name="Umacron" unicode="&#x16a;" horiz-adv-x="1485" 
d="M743 -25q-158 0 -273.5 42.5t-190.5 121t-111.5 190.5t-36.5 251v936h334v-928q0 -82 16 -146t50.5 -107.5t88 -66t128.5 -22.5q147 0 212.5 88t65.5 254v928h328v-934q0 -140 -36 -252.5t-111 -191t-190.5 -121t-273.5 -42.5zM401 1825h680v-234h-680v234z" />
    <glyph glyph-name="umacron" unicode="&#x16b;" horiz-adv-x="1266" 
d="M434 -23q-70 0 -128.5 18t-101 56.5t-66 99t-23.5 144.5v797h329v-701q0 -74 30 -112.5t99 -38.5q67 0 124.5 31t113.5 79v742h330v-1092h-330v170q-25 -32 -60 -66t-81.5 -62t-105 -46.5t-130.5 -18.5zM291 1430h680v-234h-680v234z" />
    <glyph glyph-name="Uring" unicode="&#x16e;" horiz-adv-x="1485" 
d="M741 1585q-48 0 -89 17t-71 47t-46.5 71.5t-16.5 89.5q0 47 16.5 87.5t46.5 70t71 46.5t89 17t89.5 -17t71.5 -46.5t47 -70t17 -87.5q0 -48 -17 -89.5t-47 -71.5t-71.5 -47t-89.5 -17zM741 1710q42 0 68 27.5t26 72.5q0 42 -26 69t-68 27t-68 -27t-26 -69q0 -45 26 -72.5
t68 -27.5zM743 -25q-158 0 -273.5 42.5t-190.5 121t-111.5 190.5t-36.5 251v936h334v-928q0 -82 16 -146t50.5 -107.5t88 -66t128.5 -22.5q147 0 212.5 88t65.5 254v928h328v-934q0 -140 -36 -252.5t-111 -191t-190.5 -121t-273.5 -42.5z" />
    <glyph glyph-name="uring" unicode="&#x16f;" horiz-adv-x="1266" 
d="M631 1190q-48 0 -89 17t-71 47t-46.5 71.5t-16.5 89.5q0 47 16.5 87.5t46.5 70t71 46.5t89 17t89.5 -17t71.5 -46.5t47 -70t17 -87.5q0 -48 -17 -89.5t-47 -71.5t-71.5 -47t-89.5 -17zM631 1315q42 0 68 27.5t26 72.5q0 42 -26 69t-68 27t-68 -27t-26 -69q0 -45 26 -72.5
t68 -27.5zM434 -23q-70 0 -128.5 18t-101 56.5t-66 99t-23.5 144.5v797h329v-701q0 -74 30 -112.5t99 -38.5q67 0 124.5 31t113.5 79v742h330v-1092h-330v170q-25 -32 -60 -66t-81.5 -62t-105 -46.5t-130.5 -18.5z" />
    <glyph glyph-name="Uhungarumlaut" unicode="&#x170;" horiz-adv-x="1485" 
d="M743 -25q-158 0 -273.5 42.5t-190.5 121t-111.5 190.5t-36.5 251v936h334v-928q0 -82 16 -146t50.5 -107.5t88 -66t128.5 -22.5q147 0 212.5 88t65.5 254v928h328v-934q0 -140 -36 -252.5t-111 -191t-190.5 -121t-273.5 -42.5zM598 1958h332l-328 -355h-217zM1006 1958
h332l-342 -355h-219z" />
    <glyph glyph-name="uhungarumlaut" unicode="&#x171;" horiz-adv-x="1266" 
d="M434 -23q-70 0 -128.5 18t-101 56.5t-66 99t-23.5 144.5v797h329v-701q0 -74 30 -112.5t99 -38.5q67 0 124.5 31t113.5 79v742h330v-1092h-330v170q-25 -32 -60 -66t-81.5 -62t-105 -46.5t-130.5 -18.5zM506 1563h332l-328 -355h-217zM914 1563h332l-342 -355h-219z" />
    <glyph glyph-name="Uogonek" unicode="&#x172;" horiz-adv-x="1485" 
d="M782 -383q-113 0 -171.5 41.5t-58.5 116.5q0 33 14 66t39.5 63.5t60 58.5t75.5 51h172q-79 -51 -110 -97.5t-31 -88.5q0 -15 4 -29.5t14.5 -26t28.5 -18t47 -6.5q30 0 54.5 5t44.5 12.5t37 16.5l34 17l63 -100q-63 -37 -140.5 -59.5t-176.5 -22.5zM743 -25
q-158 0 -273.5 42.5t-190.5 121t-111.5 190.5t-36.5 251v936h334v-928q0 -82 16 -146t50.5 -107.5t88 -66t128.5 -22.5q147 0 212.5 88t65.5 254v928h328v-934q0 -140 -36 -252.5t-111 -191t-190.5 -121t-273.5 -42.5z" />
    <glyph glyph-name="uogonek" unicode="&#x173;" horiz-adv-x="1266" 
d="M868 -383q-113 0 -171.5 41.5t-58.5 116.5q0 33 14 66t39.5 63.5t60 58.5t75.5 51h172q-79 -51 -110 -97.5t-31 -88.5q0 -15 4 -29.5t14.5 -26t28.5 -18t47 -6.5q30 0 54.5 5t44.5 12.5t37 16.5l34 17l63 -100q-63 -37 -140.5 -59.5t-176.5 -22.5zM434 -23
q-70 0 -128.5 18t-101 56.5t-66 99t-23.5 144.5v797h329v-701q0 -74 30 -112.5t99 -38.5q67 0 124.5 31t113.5 79v742h330v-1092h-330v170q-25 -32 -60 -66t-81.5 -62t-105 -46.5t-130.5 -18.5z" />
    <glyph glyph-name="Ydieresis" unicode="&#x178;" horiz-adv-x="1415" 
d="M541 0v643l-523 873h344l347 -590l348 590h340l-525 -873v-643h-331zM350 1894h279v-303h-279v303zM784 1894h279v-303h-279v303z" />
    <glyph glyph-name="Zacute" unicode="&#x179;" horiz-adv-x="1352" 
d="M670 1958h331l-305 -355h-217zM61 0v229l791 1010h-739v277h1159v-238l-774 -1008h774v-270h-1211z" />
    <glyph glyph-name="zacute" unicode="&#x17a;" horiz-adv-x="1085" 
d="M570 1563h331l-305 -355h-217zM59 0v170l529 682h-490v240h897v-174l-530 -685h571v-233h-977z" />
    <glyph glyph-name="Zdotaccent" unicode="&#x17b;" horiz-adv-x="1352" 
d="M61 0v229l791 1010h-739v277h1159v-238l-774 -1008h774v-270h-1211zM506 1896h338v-268h-338v268z" />
    <glyph glyph-name="zdotaccent" unicode="&#x17c;" horiz-adv-x="1085" 
d="M59 0v170l529 682h-490v240h897v-174l-530 -685h571v-233h-977zM375 1501h338v-268h-338v268z" />
    <glyph glyph-name="Zcaron" unicode="&#x17d;" horiz-adv-x="1352" 
d="M316 1966h186l186 -152l189 152h186l-264 -351h-219zM61 0v229l791 1010h-739v277h1159v-238l-774 -1008h774v-270h-1211z" />
    <glyph glyph-name="zcaron" unicode="&#x17e;" horiz-adv-x="1085" 
d="M180 1565h186l186 -152l189 152h186l-264 -351h-219zM59 0v170l529 682h-490v240h897v-174l-530 -685h571v-233h-977z" />
    <glyph glyph-name="florin" unicode="&#x192;" horiz-adv-x="860" 
d="M-156 -180q13 -3 41.5 -5.5t53.5 -2.5q76 0 119.5 37t54.5 124l104 813h-188l28 230h189l18 151q8 70 30 134.5t69 114t126 79t201 29.5q25 0 56 -2l60 -4q30 -2 52 -5l31 -4l-31 -229q-12 3 -40.5 5.5t-53.5 2.5q-30 0 -59 -4t-52.5 -17.5t-40 -39.5t-20.5 -70l-17 -141
h238l-29 -230h-237l-113 -878q-8 -61 -28.5 -119t-67 -103.5t-125 -73.5t-201.5 -28q-24 0 -55 1.5t-60 4t-51.5 5t-29.5 4.5z" />
    <glyph glyph-name="circumflex" unicode="&#x2c6;" horiz-adv-x="1133" 
d="M457 1563h219l264 -351h-186l-191 152l-184 -152h-186z" />
    <glyph glyph-name="caron" unicode="&#x2c7;" horiz-adv-x="1133" 
d="M193 1565h186l186 -152l189 152h186l-264 -351h-219z" />
    <glyph glyph-name="breve" unicode="&#x2d8;" horiz-adv-x="1024" 
d="M512 1186q-87 0 -153 29.5t-111 81t-69.5 120.5t-28.5 148h176q7 -56 26 -89.5t44.5 -52t56 -24.5t59.5 -6q30 0 60.5 6t56 24.5t44 52t25.5 89.5h176q-4 -79 -28 -148t-69 -120.5t-111.5 -81t-153.5 -29.5z" />
    <glyph glyph-name="dotaccent" unicode="&#x2d9;" horiz-adv-x="1024" 
d="M344 1501h338v-268h-338v268z" />
    <glyph glyph-name="ring" unicode="&#x2da;" horiz-adv-x="1106" 
d="M553 1190q-48 0 -89 17t-71 47t-46.5 71.5t-16.5 89.5q0 47 16.5 87.5t46.5 70t71 46.5t89 17t89.5 -17t71.5 -46.5t47 -70t17 -87.5q0 -48 -17 -89.5t-47 -71.5t-71.5 -47t-89.5 -17zM553 1315q42 0 68 27.5t26 72.5q0 42 -26 69t-68 27t-68 -27t-26 -69q0 -45 26 -72.5
t68 -27.5z" />
    <glyph glyph-name="ogonek" unicode="&#x2db;" horiz-adv-x="1024" 
d="M549 -383q-113 0 -171.5 41.5t-58.5 116.5q0 33 14 66t39.5 63.5t60 58.5t75.5 51h172q-79 -51 -110 -97.5t-31 -88.5q0 -15 4 -29.5t14.5 -26t28.5 -18t47 -6.5q30 0 54.5 5t44.5 12.5t38 16.5l33 17l63 -100q-63 -37 -140.5 -59.5t-176.5 -22.5z" />
    <glyph glyph-name="tilde" unicode="&#x2dc;" horiz-adv-x="1071" 
d="M692 1188q-56 0 -96.5 18t-73.5 40l-62 39q-29 18 -63 18q-40 0 -62 -25.5t-22 -85.5h-178q0 87 17.5 148.5t49 101t76.5 58t101 18.5t96.5 -18t73.5 -40l62 -39q29 -18 63 -18q40 0 62 25t22 85h176q0 -87 -17 -148.5t-48.5 -100.5t-76.5 -57.5t-100 -18.5z" />
    <glyph glyph-name="hungarumlaut" unicode="&#x2dd;" horiz-adv-x="1077" 
d="M313 1563h332l-328 -355h-217zM721 1563h332l-342 -355h-219z" />
    <glyph glyph-name="uni0326" unicode="&#x326;" horiz-adv-x="578" 
d="M256 -377h-123v289h309v-248l-127 -266h-137z" />
    <glyph glyph-name="endash" unicode="&#x2013;" horiz-adv-x="1389" 
d="M113 500v276h1163v-276h-1163z" />
    <glyph glyph-name="emdash" unicode="&#x2014;" horiz-adv-x="1931" 
d="M113 498v278h1706v-278h-1706z" />
    <glyph glyph-name="quoteleft" unicode="&#x2018;" horiz-adv-x="578" 
d="M119 952v291l157 273h154l-88 -246h115v-318h-338z" />
    <glyph glyph-name="quoteright" unicode="&#x2019;" horiz-adv-x="578" 
d="M147 952l86 246h-114v318h338v-291l-156 -273h-154z" />
    <glyph glyph-name="quotesinglbase" unicode="&#x201a;" horiz-adv-x="578" 
d="M147 -246l86 246h-114v317h338v-288l-156 -275h-154z" />
    <glyph glyph-name="quotedblleft" unicode="&#x201c;" horiz-adv-x="1065" 
d="M119 952v291l157 273h154l-88 -246h115v-318h-338zM608 952v291l158 273h152l-87 -246h115v-318h-338z" />
    <glyph glyph-name="quotedblright" unicode="&#x201d;" horiz-adv-x="1065" 
d="M147 952l86 246h-114v318h338v-291l-156 -273h-154zM637 952l86 246h-115v318h338v-291l-158 -273h-151z" />
    <glyph glyph-name="quotedblbase" unicode="&#x201e;" horiz-adv-x="1065" 
d="M147 -246l86 246h-114v317h338v-288l-156 -275h-154zM637 -246l86 246h-115v317h338v-288l-158 -275h-151z" />
    <glyph glyph-name="dagger" unicode="&#x2020;" horiz-adv-x="1251" 
d="M453 -410l51 1164l-443 -33v301l443 -37l-51 531h344l-52 -531l443 37v-301l-443 33l52 -1164h-344z" />
    <glyph glyph-name="daggerdbl" unicode="&#x2021;" horiz-adv-x="1251" 
d="M453 -410l51 420l-402 -37v287l402 -35l-43 328l43 326l-402 -33v284l402 -34l-51 420h344l-52 -420l402 34v-284l-402 33l43 -326l-43 -328l402 35v-287l-402 37l52 -420h-344z" />
    <glyph glyph-name="bullet" unicode="&#x2022;" horiz-adv-x="948" 
d="M473 438q-60 0 -111 21t-88 58.5t-58 88.5t-21 111q0 61 21 112t58 88.5t88 58.5t111 21q61 0 112.5 -21t89 -58.5t58.5 -88.5t21 -112q0 -60 -21 -111t-58.5 -88.5t-89 -58.5t-112.5 -21z" />
    <glyph glyph-name="ellipsis" unicode="&#x2026;" horiz-adv-x="1731" 
d="M1266 0v317h352v-317h-352zM113 0v317h352v-317h-352zM688 0v317h352v-317h-352z" />
    <glyph glyph-name="perthousand" unicode="&#x2030;" horiz-adv-x="3185" 
d="M1772 -20q-96 0 -172 35.5t-129 100.5t-81 156.5t-28 202.5q0 113 28.5 205t82 157t130 100.5t171.5 35.5q94 0 169.5 -35.5t128 -100.5t81 -156.5t28.5 -203.5q0 -111 -28 -203t-80.5 -157t-128.5 -101t-172 -36zM500 549q-97 0 -173.5 35.5t-129.5 100t-81 156
t-28 203.5q0 113 28.5 205t82 156.5t130 99.5t171.5 35q94 0 169.5 -35t128.5 -99.5t81 -155.5t28 -203t-28 -204t-80.5 -157t-128 -101t-170.5 -36zM2687 -20q-96 0 -172 35.5t-129 100.5t-81 156.5t-28 202.5q0 113 28.5 205t81.5 157t129 100.5t171 35.5t171 -35.5
t128.5 -100.5t80.5 -156.5t28 -203.5q0 -111 -28 -203t-80.5 -157t-128.5 -101t-171 -36zM541 0l905 1516h283l-906 -1516h-282zM500 756q37 0 63 20t42.5 57.5t24 90.5t7.5 120q0 137 -32.5 211t-104.5 74q-77 0 -109.5 -75t-32.5 -207q0 -137 33 -214t109 -77zM1774 188
q37 0 63 20t42.5 57.5t24 91t7.5 120.5q0 136 -32.5 209.5t-106.5 73.5q-38 0 -64.5 -19.5t-43.5 -56t-24.5 -89t-7.5 -118.5q0 -137 33 -213t109 -76zM2687 188q37 0 63.5 20t42.5 57.5t23.5 91t7.5 120.5q0 135 -32 209t-105 74q-75 0 -108 -75.5t-33 -207.5
q0 -137 33.5 -213t107.5 -76z" />
    <glyph glyph-name="guilsinglleft" unicode="&#x2039;" horiz-adv-x="764" 
d="M389 0l-340 547l340 545h313l-325 -545l325 -547h-313z" />
    <glyph glyph-name="guilsinglright" unicode="&#x203a;" horiz-adv-x="764" 
d="M61 0l326 547l-326 545h314l340 -545l-340 -547h-314z" />
    <glyph glyph-name="fraction" unicode="&#x2044;" horiz-adv-x="1114" 
d="M-35 0l901 1516h283l-899 -1516h-285z" />
    <glyph glyph-name="fraction" unicode="&#x2215;" horiz-adv-x="1114" 
d="M-35 0l901 1516h283l-899 -1516h-285z" />
    <glyph glyph-name="uni2070" unicode="&#x2070;" horiz-adv-x="1090" 
d="M545 520q-105 0 -185.5 36t-135 102t-83 159.5t-28.5 208.5q0 114 28.5 208t83 160.5t135 103t185.5 36.5q104 0 184.5 -36.5t135.5 -103t83.5 -160.5t28.5 -208q0 -115 -28.5 -208.5t-83.5 -159.5t-135.5 -102t-184.5 -36zM545 725q91 0 128.5 78.5t37.5 222.5
q0 141 -38.5 219t-127.5 78q-47 0 -79 -20t-52 -58t-28.5 -93.5t-8.5 -125.5q0 -144 39.5 -222.5t128.5 -78.5z" />
    <glyph glyph-name="uni2074" unicode="&#x2074;" horiz-adv-x="1016" 
d="M532 739h-440v166l432 611h269v-574h153v-203h-153v-200h-261v200zM547 926v311l-211 -311h211z" />
    <glyph glyph-name="uni2075" unicode="&#x2075;" horiz-adv-x="961" 
d="M457 520q-69 0 -123.5 9t-100 26t-83.5 41t-72 55l115 170q24 -22 54.5 -41t64 -32.5t69.5 -21t70 -7.5q81 0 122 40.5t41 112.5q0 73 -39.5 109.5t-107.5 36.5q-46 0 -84 -21t-76 -67l-176 55l41 531h629l-15 -201h-419l-15 -180q28 26 75 41.5t118 15.5q72 0 132 -19
t102.5 -59t66.5 -101t24 -145q0 -89 -30.5 -154.5t-85.5 -108.5t-131 -64t-166 -21z" />
    <glyph glyph-name="uni2076" unicode="&#x2076;" horiz-adv-x="1018" 
d="M537 520q-209 0 -316.5 123t-107.5 369q0 148 36.5 248t98.5 161t144.5 87t174.5 26q114 0 194.5 -27t125.5 -61l-107 -182q-91 61 -213 61q-49 0 -84.5 -12t-58.5 -40t-35.5 -73.5t-15.5 -112.5q25 19 50 35t53.5 26.5t63 16.5t78.5 6q66 0 123.5 -17.5t100 -55
t67.5 -96.5t25 -142q0 -77 -25.5 -139.5t-75.5 -107t-124.5 -69t-171.5 -24.5zM539 713q75 0 111 37t36 96q0 69 -34 104t-109 35q-60 0 -98 -18.5t-72 -48.5q6 -98 47 -151.5t119 -53.5z" />
    <glyph glyph-name="uni2077" unicode="&#x2077;" horiz-adv-x="866" 
d="M518 1303h-444v213h721v-195l-361 -782h-272z" />
    <glyph glyph-name="uni2078" unicode="&#x2078;" horiz-adv-x="997" 
d="M498 520q-203 0 -306.5 72.5t-103.5 200.5q0 45 16.5 83.5t44.5 70.5t66 57.5t80 44.5q-38 20 -68.5 42t-51.5 49.5t-32.5 62.5t-11.5 81q0 47 22 92t67.5 80t114.5 56.5t163 21.5q97 0 166 -21.5t113.5 -56.5t65.5 -80t21 -92q0 -77 -44 -136t-120 -93
q45 -21 82.5 -44.5t65.5 -54t43.5 -70t15.5 -93.5q0 -128 -104 -200.5t-305 -72.5zM494 688q81 0 120 30.5t39 84.5t-44.5 93.5t-137.5 74.5q-65 -31 -100 -74t-35 -94q0 -53 38 -84t120 -31zM522 1122q51 28 77 58t26 75q0 19 -7 37.5t-21.5 33t-37.5 23.5t-55 9
q-65 0 -95 -29t-30 -69q0 -26 8 -45t25 -35t44.5 -29.5t65.5 -28.5z" />
    <glyph glyph-name="uni2079" unicode="&#x2079;" horiz-adv-x="1018" 
d="M449 520q-113 0 -193 27t-125 61l107 176q88 -61 213 -61q49 0 84.5 12t58.5 40t35.5 73.5t15.5 112.5q-25 -20 -50 -35.5t-54 -26t-64 -16.5t-80 -6q-65 0 -122 18.5t-99.5 57t-67 98.5t-24.5 143q0 76 25.5 138.5t75.5 107.5t123.5 69.5t170.5 24.5q211 0 318.5 -124
t107.5 -368q0 -148 -40 -248t-104.5 -161t-146 -87t-165.5 -26zM475 1063q60 0 98 17.5t72 49.5q-6 96 -48 150.5t-120 54.5q-74 0 -109.5 -38t-35.5 -97q0 -68 34 -102.5t109 -34.5z" />
    <glyph glyph-name="uni2080" unicode="&#x2080;" horiz-adv-x="1090" 
d="M545 -425q-105 0 -185.5 36t-135 102t-83 159.5t-28.5 208.5q0 114 28.5 208t83 160.5t135 103t185.5 36.5q104 0 184.5 -36.5t135.5 -103t83.5 -160.5t28.5 -208q0 -115 -28.5 -208.5t-83.5 -159.5t-135.5 -102t-184.5 -36zM545 -220q91 0 128.5 78.5t37.5 222.5
q0 141 -38.5 219t-127.5 78q-47 0 -79 -20t-52 -58t-28.5 -93.5t-8.5 -125.5q0 -144 39.5 -222.5t128.5 -78.5z" />
    <glyph glyph-name="uni2081" unicode="&#x2081;" horiz-adv-x="774" 
d="M120 -202h176v566q-37 -17 -83 -29t-89 -12v186q59 2 103 16.5t75 45.5h258v-773h154v-206h-594v206z" />
    <glyph glyph-name="uni2082" unicode="&#x2082;" horiz-adv-x="979" 
d="M115 -351q0 53 8 106.5t37.5 108.5t86 111.5t154.5 115.5l93 57q38 24 60 44t31 41.5t9 52.5q0 42 -25 64t-71 22q-47 0 -103 -34.5t-104 -113.5l-178 129q74 118 167 178t224 60q87 0 151 -21t106.5 -60t63.5 -94.5t21 -123.5q0 -42 -10 -83t-37.5 -82t-75.5 -81.5
t-123 -81.5q-47 -26 -79 -48t-52.5 -41.5t-32 -36t-16.5 -31.5h432v-211h-737v53z" />
    <glyph glyph-name="uni2083" unicode="&#x2083;" horiz-adv-x="979" 
d="M481 -421q-125 0 -228 51t-169 150l160 139q27 -37 54.5 -61.5t55.5 -39t54.5 -20.5t50.5 -6q40 0 68 8t45 22t24.5 34t7.5 43q0 63 -45 90t-147 27h-78v182h82q49 0 82 6.5t52.5 19t27.5 30.5t8 40q0 37 -27 58.5t-78 21.5q-46 0 -103 -19.5t-120 -78.5l-139 161
q83 81 182 117.5t201 36.5q168 0 255 -70.5t87 -195.5q0 -33 -8 -64.5t-25.5 -58.5t-45.5 -48.5t-67 -35.5q48 -15 81.5 -37.5t54.5 -51.5t30.5 -63.5t9.5 -72.5q0 -77 -28 -135.5t-79.5 -98.5t-124 -60t-161.5 -20z" />
    <glyph glyph-name="uni2084" unicode="&#x2084;" horiz-adv-x="1016" 
d="M532 -206h-440v166l432 611h269v-574h153v-203h-153v-200h-261v200zM547 -19v311l-211 -311h211z" />
    <glyph glyph-name="uni2085" unicode="&#x2085;" horiz-adv-x="961" 
d="M457 -425q-69 0 -123.5 9t-100 26t-83.5 41t-72 55l115 170q24 -22 54.5 -41t64 -32.5t69.5 -21t70 -7.5q81 0 122 40.5t41 112.5q0 73 -39.5 109.5t-107.5 36.5q-46 0 -84 -21t-76 -67l-176 55l41 531h629l-15 -201h-419l-15 -180q28 26 75 41.5t118 15.5q72 0 132 -19
t102.5 -59t66.5 -101t24 -145q0 -89 -30.5 -154.5t-85.5 -108.5t-131 -64t-166 -21z" />
    <glyph glyph-name="uni2086" unicode="&#x2086;" horiz-adv-x="1018" 
d="M537 -425q-209 0 -316.5 123t-107.5 369q0 148 36.5 248t98.5 161t144.5 87t174.5 26q114 0 194.5 -27t125.5 -61l-107 -182q-91 61 -213 61q-49 0 -84.5 -12t-58.5 -40t-35.5 -73.5t-15.5 -112.5q25 19 50 35t53.5 26.5t63 16.5t78.5 6q66 0 123.5 -17.5t100 -55
t67.5 -96.5t25 -142q0 -77 -25.5 -139.5t-75.5 -107t-124.5 -69t-171.5 -24.5zM539 -232q75 0 111 37t36 96q0 69 -34 104t-109 35q-60 0 -98 -18.5t-72 -48.5q6 -98 47 -151.5t119 -53.5z" />
    <glyph glyph-name="uni2087" unicode="&#x2087;" horiz-adv-x="866" 
d="M518 358h-444v213h721v-195l-361 -782h-272z" />
    <glyph glyph-name="uni2088" unicode="&#x2088;" horiz-adv-x="997" 
d="M498 -425q-203 0 -306.5 72.5t-103.5 200.5q0 45 16.5 83.5t44.5 70.5t66 57.5t80 44.5q-38 20 -68.5 42t-51.5 49.5t-32.5 62.5t-11.5 81q0 47 22 92t67.5 80t114.5 56.5t163 21.5q97 0 166 -21.5t113.5 -56.5t65.5 -80t21 -92q0 -77 -44 -136t-120 -93
q45 -21 82.5 -44.5t65.5 -54t43.5 -70t15.5 -93.5q0 -128 -104 -200.5t-305 -72.5zM494 -257q81 0 120 30.5t39 84.5t-44.5 93.5t-137.5 74.5q-65 -31 -100 -74t-35 -94q0 -53 38 -84t120 -31zM522 177q51 28 77 58t26 75q0 19 -7 37.5t-21.5 33t-37.5 23.5t-55 9
q-65 0 -95 -29t-30 -69q0 -26 8 -45t25 -35t44.5 -29.5t65.5 -28.5z" />
    <glyph glyph-name="uni2089" unicode="&#x2089;" horiz-adv-x="1018" 
d="M449 -425q-113 0 -193 27t-125 61l107 176q88 -61 213 -61q49 0 84.5 12t58.5 40t35.5 73.5t15.5 112.5q-25 -20 -50 -35.5t-54 -26t-64 -16.5t-80 -6q-65 0 -122 18.5t-99.5 57t-67 98.5t-24.5 143q0 76 25.5 138.5t75.5 107.5t123.5 69.5t170.5 24.5q211 0 318.5 -124
t107.5 -368q0 -148 -40 -248t-104.5 -161t-146 -87t-165.5 -26zM475 118q60 0 98 17.5t72 49.5q-6 96 -48 150.5t-120 54.5q-74 0 -109.5 -38t-35.5 -97q0 -68 34 -102.5t109 -34.5z" />
    <glyph glyph-name="Euro" unicode="&#x20ac;" horiz-adv-x="1509" 
d="M254 813h-211v176h229q25 142 81.5 246.5t136 173t177.5 102t207 33.5q120 0 209.5 -29.5t155 -83t110 -129t74.5 -167.5l-282 -105q-19 60 -41 107t-51.5 80t-70 50t-97.5 17q-116 0 -186.5 -75.5t-98.5 -219.5h326v-176h-347v-51q0 -23 0.5 -45t2.5 -43h344v-178h-324
q14 -64 37 -114t58 -85t82.5 -53.5t109.5 -18.5q98 0 160.5 67t103.5 210l287 -90q-32 -105 -82.5 -187t-119 -138.5t-156.5 -86t-195 -29.5q-111 0 -209 30.5t-176.5 95t-135 163.5t-83.5 236h-236v178h213q-2 21 -2 42v44v53z" />
    <glyph glyph-name="trademark" unicode="&#x2122;" horiz-adv-x="1894" 
d="M877 649v867h305l157 -576l160 576h301v-867h-217v565l-162 -565h-184l-162 561v-561h-198zM295 649v682h-238v185h699v-185h-238v-682h-223z" />
    <glyph glyph-name="glyph1" 
 />
    <glyph glyph-name="glyph2" horiz-adv-x="551" 
 />
    <glyph glyph-name="glyph4" 
 />
    <glyph glyph-name="glyph5" 
 />
    <glyph glyph-name="glyph93" 
 />
    <glyph glyph-name="glyph133" 
 />
    <glyph glyph-name="glyph134" 
 />
    <glyph glyph-name="glyph138" 
 />
    <glyph glyph-name="glyph147" 
 />
    <glyph glyph-name="glyph149" 
 />
    <glyph glyph-name="glyph150" 
 />
    <glyph glyph-name="glyph151" 
 />
    <glyph glyph-name="glyph152" 
 />
    <glyph glyph-name="glyph154" 
 />
    <glyph glyph-name="glyph161" 
 />
    <glyph glyph-name="glyph162" 
 />
    <glyph glyph-name="glyph167" 
 />
    <glyph glyph-name="glyph172" 
 />
    <glyph glyph-name="glyph174" 
 />
    <glyph glyph-name="glyph187" 
 />
    <glyph glyph-name="glyph188" 
 />
    <glyph glyph-name="glyph189" 
 />
    <glyph glyph-name="glyph193" 
 />
    <glyph glyph-name="glyph201" 
 />
    <glyph glyph-name="glyph202" 
 />
    <glyph glyph-name="glyph203" 
 />
    <glyph glyph-name="glyph204" 
 />
    <glyph glyph-name="glyph205" 
 />
    <glyph glyph-name="glyph207" 
 />
    <glyph glyph-name="glyph209" 
 />
    <glyph glyph-name="glyph232" 
 />
    <glyph glyph-name="glyph233" 
 />
    <glyph glyph-name="glyph237" 
 />
    <glyph glyph-name="glyph246" 
 />
    <glyph glyph-name="glyph248" 
 />
    <glyph glyph-name="glyph249" 
 />
    <glyph glyph-name="glyph250" 
 />
    <glyph glyph-name="glyph253" 
 />
    <glyph glyph-name="glyph257" 
 />
    <glyph glyph-name="glyph260" 
 />
    <glyph glyph-name="glyph261" 
 />
    <glyph glyph-name="glyph263" 
 />
    <glyph glyph-name="glyph267" 
 />
    <glyph glyph-name="glyph272" 
 />
    <glyph glyph-name="glyph274" 
 />
    <glyph glyph-name="glyph287" 
 />
    <glyph glyph-name="glyph288" 
 />
    <glyph glyph-name="glyph289" 
 />
    <glyph glyph-name="glyph293" 
 />
    <glyph glyph-name="glyph301" 
 />
    <glyph glyph-name="glyph302" 
 />
    <glyph glyph-name="glyph303" 
 />
    <glyph glyph-name="glyph304" 
 />
    <glyph glyph-name="glyph305" 
 />
    <glyph glyph-name="glyph307" 
 />
    <glyph glyph-name="glyph309" 
 />
    <glyph glyph-name="glyph313" 
 />
    <glyph glyph-name="glyph317" 
 />
    <glyph glyph-name="glyph320" 
 />
    <glyph glyph-name="glyph338" 
 />
    <glyph glyph-name="glyph339" 
 />
    <glyph glyph-name="glyph342" 
 />
    <glyph glyph-name="glyph343" 
 />
    <glyph glyph-name="glyph344" 
 />
    <glyph glyph-name="glyph369" 
 />
    <glyph glyph-name="glyph370" 
 />
    <glyph glyph-name="glyph371" 
 />
    <glyph glyph-name="glyph375" 
 />
    <glyph glyph-name="glyph377" 
 />
    <glyph glyph-name="glyph378" 
 />
    <glyph glyph-name="glyph379" 
 />
    <glyph glyph-name="glyph394" 
 />
    <glyph glyph-name="glyph395" 
 />
    <glyph glyph-name="glyph396" 
 />
    <glyph glyph-name="glyph397" 
 />
    <glyph glyph-name="glyph398" 
 />
    <glyph glyph-name="glyph399" 
 />
    <glyph glyph-name="glyph400" 
 />
    <glyph glyph-name="glyph401" 
 />
    <glyph glyph-name="glyph402" 
 />
    <glyph glyph-name="glyph403" 
 />
    <glyph glyph-name="glyph404" 
 />
    <glyph glyph-name="glyph405" 
 />
    <glyph glyph-name="glyph406" 
 />
    <glyph glyph-name="glyph408" 
 />
    <glyph glyph-name="glyph410" 
 />
    </font>
</defs>
</svg>
