<svg xmlns="http://www.w3.org/2000/svg" width="53" height="52.5" viewBox="0 0 53 52.5"><path fill="#FDB913" d="M32.4 52.5C13.9 51.7-.6 39.4 0 24.9.6 10.4 16-.7 34.5 0c18.4.7 26.1 14.9 8.8 26.6-11.9 8.1 7.5 26.6-10.9 25.9z"/><ellipse fill="#FFF" cx="30.8" cy="38.5" rx="2.7" ry="7.8"/><circle fill="#FFF" cx="30.8" cy="26.1" r="2.6"/><path fill="#FFF" d="M18.9 30.6c-4.4 0-7.3 3.5-7.3 7.8 0 4.4 2.9 7.8 7.3 7.8s7.3-3.5 7.3-7.8-2.9-7.8-7.3-7.8m0 12c-2 0-3.1-2.1-3.1-4.2s1.1-4.1 3.1-4.1 3.1 2 3.1 4.1c0 2.2-1.1 4.2-3.1 4.2z"/></svg>