<?xml version="1.0" encoding="utf-8"?>
<!-- Generator: Adobe Illustrator 16.0.0, SVG Export Plug-In . SVG Version: 6.00 Build 0)  -->
<!DOCTYPE svg PUBLIC "-//W3C//DTD SVG 1.1//EN" "http://www.w3.org/Graphics/SVG/1.1/DTD/svg11.dtd">
<svg version="1.1" id="Layer_1" xmlns="http://www.w3.org/2000/svg" xmlns:xlink="http://www.w3.org/1999/xlink" x="0px" y="0px"
	 width="600px" height="200px" viewBox="0 0 600 200" enable-background="new 0 0 600 200" xml:space="preserve">
<g>
	<path fill="#CCCCCC" d="M276.192,77h47.619c0.99,0,2.188-1.303,2.188-2.544v-2.433c0-1.352-1.327-2.023-2.439-2.023H319h-37.924
		h-0.002h-4.631c-1.116,0-2.443,0.672-2.443,2.023v2.433C274,75.697,275.203,77,276.192,77z"/>
	<path fill="#CCCCCC" d="M277.731,65.327c0,1.025,0.435,2.673,0.973,2.673h42.597c0.54,0,0.973-1.65,0.973-2.673
		c0-1.025-0.435-2.327-0.973-2.327h-42.597C278.166,63,277.731,64.299,277.731,65.327z"/>
	<path fill="#CCCCCC" d="M263.403,167h73.197c0.924,0,1.671-1.652,1.671-2.672c0-1.027-0.747-2.328-1.671-2.328h-73.197
		c-0.923,0-1.67,1.301-1.67,2.328C261.733,165.348,262.48,167,263.403,167z"/>
	<path fill="#CCCCCC" d="M318.965,61c0.471,0,0.854-1.04,0.854-1.828c0-0.776-0.371-2.172-0.83-2.172h-37.976
		c-0.459,0-0.826,1.396-0.826,2.172c0,0.788,0.382,1.828,0.852,1.828H318.965z"/>
	<path fill="#CCCCCC" d="M281.728,55.32c6.933-0.336,30.217-0.144,36.55,0l7.301-22.923c1.021-3.406-17.267-5.546-25.576-5.546
		c-8.354,0-26.601,2.14-25.577,5.546L281.728,55.32z"/>
	<path fill="#CCCCCC" d="M297,25.653c2-0.107,4-0.127,6,0V12h9V7h-9V0h-6v7h-9v5h9V25.653z"/>
	<path fill="#CCCCCC" d="M318.22,79h-36.431c10.172,26-8.024,77-15.658,81h67.741C326.24,156,308.043,105,318.22,79z"/>
	<path fill="#CCCCCC" d="M332.421,170.103c0-0.68,0.131-1.103,0.297-2.103h-65.435c0.168,1,0.294,1.423,0.294,2.103
		c0,8.638-16.162,11.501-16.162,21.364c0,5.254,7.363,8.533,11.35,8.533h74.471c3.988,0,11.35-3.279,11.35-8.533
		C348.587,181.604,332.421,178.74,332.421,170.103z"/>
</g>
<g>
	<path fill="#CCCCCC" d="M481,68.028v1.844c0,0.94,0.211,2.128,0.961,2.128h36.082c0.749,0,0.957-1.188,0.957-2.128v-1.844
		c0-1.024-0.305-2.028-1.147-2.028H514l0,0h-28l0,0h-3.851C481.305,66,481,67.004,481,68.028z"/>
	<path fill="#CCCCCC" d="M483.126,62.868c0,0.777,0.329,2.132,0.736,2.132h32.278c0.409,0,0.736-1.355,0.736-2.132
		S516.548,61,516.141,61h-32.278C483.455,61,483.126,62.091,483.126,62.868z"/>
	<path fill="#CCCCCC" d="M472.27,140h55.465c0.699,0,1.265-1.357,1.265-2.131c0-0.777-0.565-1.869-1.265-1.869H472.27
		c-0.699,0-1.266,1.092-1.266,1.869C471.004,138.643,471.57,140,472.27,140z"/>
	<path fill="#CCCCCC" d="M514.37,60c0.356,0,0.646-0.772,0.646-1.37c0-0.588-0.28-1.63-0.629-1.63h-28.775
		c-0.348,0-0.626,1.042-0.626,1.63c0,0.597,0.29,1.37,0.646,1.37H514.37z"/>
	<path fill="#CCCCCC" d="M513.806,73h-27.604c7.708,20-6.079,59-11.865,62h51.33C519.884,132,506.095,93,513.806,73z"/>
	<path fill="#CCCCCC" d="M524.566,142.47c0-0.516,0.099-0.47,0.225-1.47h-49.582c0.127,1,0.223,0.954,0.223,1.47
		c0,6.545-12.245,8.653-12.245,16.126c0,3.982,5.579,6.404,8.6,6.404h56.429c3.021,0,8.599-2.422,8.599-6.404
		C536.815,151.123,524.566,149.015,524.566,142.47z"/>
	<path fill="#CCCCCC" d="M480.779,39.996l5.372,15.375c5.254-0.254,22.896-0.108,27.695,0l5.387-15.416
		c0.648-0.181,1.133-0.75,1.133-1.456c0-0.848-0.687-1.537-1.536-1.537s-1.536,0.689-1.536,1.537c0,0.42,0.169,0.799,0.443,1.078
		c-1.624,0.097-3.822,0.155-5.413-0.958c0.494-0.256,0.842-0.756,0.842-1.35c0-0.848-0.688-1.536-1.536-1.536
		s-1.537,0.688-1.537,1.536c0,0.453,0.205,0.85,0.517,1.13c-1.49,0.459-4.278,1.008-6.094-0.477
		c0.528-0.244,0.898-0.771,0.898-1.388c0-0.848-0.688-1.536-1.537-1.536c-0.849,0-1.536,0.688-1.536,1.536
		c0,0.494,0.249,0.912,0.608,1.195c-1.973,0.816-4.062,0.645-5.85-0.032c0.335-0.282,0.561-0.69,0.561-1.163
		c0-0.848-0.687-1.536-1.535-1.536c-0.851,0-1.537,0.688-1.537,1.536c0,0.618,0.369,1.144,0.896,1.388
		c-1.814,1.484-4.603,0.936-6.093,0.478c0.313-0.282,0.517-0.678,0.517-1.132c0-0.848-0.688-1.536-1.536-1.536
		c-0.851,0-1.537,0.688-1.537,1.536c0,0.594,0.347,1.092,0.839,1.349c-1.646,1.154-3.953,1.05-5.589,0.951
		c0.27-0.278,0.439-0.652,0.439-1.069c0-0.848-0.688-1.537-1.536-1.537c-0.851,0-1.538,0.689-1.538,1.537
		C479.449,39.275,480.032,39.89,480.779,39.996z"/>
</g>
<g>
	<path fill="#CCCCCC" d="M129.2,135H70.804c-0.736,0-1.332,0.543-1.332,1.363c0,0.812,0.596,1.637,1.332,1.637H129.2
		c0.736,0,1.332-0.824,1.332-1.637C130.532,135.543,129.937,135,129.2,135z"/>
	<path fill="#CCCCCC" d="M125.865,141.414c0-0.543,0.104-1.414,0.236-1.414H73.899c0.134,0,0.234,0.871,0.234,1.414
		c0,6.891-12.894,9.043-12.894,16.911c0,4.191,5.874,6.675,9.054,6.675h59.412c3.182,0,9.054-2.483,9.054-6.675
		C138.762,150.457,125.865,148.305,125.865,141.414z"/>
	<path fill="#CCCCCC" d="M73.723,112.993l13.717-19.378l-6.65,21.182l9.232-4.194c6.536-9.569,33.679-44.45,7.732-38.191
		l-0.137-1.02c5.791-1.389,9.411-0.88,11.058,1.553c4.005,5.919-5.907,20.843-15.513,34.366c-0.979,1.378-1.969,3.04-2.614,3.989
		l-4.226,1.734C83.982,120.573,79.846,128,72.979,133h54.043c10.516-6-8.444-19.41-8.444-29.789
		c0-10.377,11.954-26.252,11.954-48.208c0-18.552-39.1-27.098-53.47-13.126c-3.125,3.037,4.987,12.439,4.987,12.439l-9.643,21.151
		c0,0-4.675,23.337-4.675,33.709C67.732,111.606,73.723,112.993,73.723,112.993z M115.512,49.227l0.804,2.556l-15.621,9.155
		l-0.482-0.625l15.306-8.868l-0.381-1.214l-20.054,3.438l-0.747-0.971L115.512,49.227z M79,71.731l3.311-6.659
		C86.702,76.251,79,78.447,79,78.447V71.731z M69.696,105.808l2.899,5.123l-3.172-2.045L69.696,105.808z"/>
</g>
</svg>
